<svg width="59" height="59" viewBox="0 0 59 59" fill="none" xmlns="http://www.w3.org/2000/svg">
<path d="M29.0625 0C13.0069 0 0 13.0087 0 29.0625C0 45.1162 13.0087 58.125 29.0625 58.125C45.1181 58.125 58.125 45.1162 58.125 29.0625C58.125 13.0087 45.1162 0 29.0625 0ZM43.3369 19.9106L38.5669 42.3881C38.2144 43.9819 37.2656 44.3681 35.9419 43.6181L28.6762 38.2631L25.1719 41.6381C24.7856 42.0244 24.4575 42.3525 23.7075 42.3525L24.2231 34.9575L37.6875 22.7925C38.2744 22.2769 37.5581 21.9844 36.7837 22.5L20.1431 32.9756L12.9713 30.7369C11.4131 30.2456 11.3775 29.1787 13.2994 28.4287L41.3194 17.6231C42.6206 17.1544 43.7569 17.94 43.335 19.9088L43.3369 19.9106Z" fill="white"/>
</svg>
