<svg width="55" height="54" viewBox="0 0 55 54" fill="none" xmlns="http://www.w3.org/2000/svg">
<path d="M27.0825 35.9303H29.084C29.084 35.9303 29.6871 35.8648 29.9949 35.5347C30.2874 35.2269 30.2874 34.6572 30.2874 34.6572C30.2874 34.6572 30.2443 31.9731 31.4978 31.579C32.7333 31.1876 34.3003 34.1697 35.9703 35.316C37.2462 36.1921 38.2059 36.0041 38.2059 36.0041L42.6784 35.9428C42.6784 35.9428 45.0212 35.7966 43.9138 33.9566C43.8289 33.8103 43.2857 32.5985 40.6114 30.1123C37.8089 27.5202 38.185 27.938 41.5529 23.4446C43.5991 20.7077 44.4362 19.0348 44.1646 18.3245C43.9333 17.6559 42.4095 17.8216 42.4095 17.8216L37.3924 17.8648C37.3924 17.8648 37.0164 17.8216 36.7448 17.9902C36.4732 18.1559 36.3074 18.5348 36.3074 18.5348C36.3074 18.5348 35.5107 20.6645 34.4465 22.4627C32.1859 26.2638 31.2875 26.4727 30.9323 26.222C30.091 25.6774 30.3069 24.0213 30.3069 22.8346C30.3069 19.156 30.8697 17.6113 29.2191 17.2143C28.6759 17.0876 28.2706 17.0054 26.8721 16.9831C25.0753 16.9636 23.5599 16.9971 22.7005 17.4163C22.1364 17.6991 21.6976 18.3245 21.9498 18.3565C22.284 18.3983 23.0348 18.5599 23.4318 19.1045C23.9541 19.8093 23.9318 21.3832 23.9318 21.3832C23.9318 21.3832 24.2257 25.7234 23.2437 26.2624C22.5543 26.6273 21.635 25.8724 19.6292 22.4237C18.6055 20.6687 17.831 18.7047 17.831 18.7047C17.831 18.7047 17.6848 18.3481 17.4146 18.1392C17.0984 17.9094 16.6388 17.8258 16.6388 17.8258L11.8543 17.8676C11.8543 17.8676 11.1439 17.8899 10.8946 18.2019C10.6634 18.4735 10.8723 19.0585 10.8723 19.0585C10.8723 19.0585 14.6135 27.8154 18.8562 32.2253C22.7423 36.2673 27.1521 36.0069 27.1521 36.0069L27.0825 35.9303Z" fill="white"/>
<rect x="2" y="2" width="51" height="50" rx="14" stroke="white" stroke-width="4"/>
</svg>
