<svg width="35" height="35" viewBox="0 0 35 35" fill="none" xmlns="http://www.w3.org/2000/svg">
<path d="M20.6633 16.9999L34.4333 3.22992C34.7427 2.86858 34.9044 2.40377 34.886 1.92838C34.8677 1.45299 34.6706 1.00204 34.3342 0.665638C33.9978 0.329238 33.5469 0.132164 33.0715 0.113802C32.5961 0.0954399 32.1313 0.257141 31.7699 0.566591L17.9999 14.3366L4.22992 0.547702C3.86858 0.238252 3.40377 0.0765524 2.92838 0.0949146C2.45299 0.113277 2.00204 0.310348 1.66564 0.646749C1.32924 0.98315 1.13216 1.4341 1.1138 1.90949C1.09544 2.38488 1.25714 2.84969 1.56659 3.21104L15.3366 16.9999L1.5477 30.7699C1.34997 30.9393 1.18937 31.1476 1.076 31.382C0.96262 31.6163 0.898907 31.8716 0.888859 32.1317C0.878811 32.3918 0.922644 32.6513 1.01761 32.8937C1.11257 33.136 1.25661 33.3562 1.44069 33.5403C1.62478 33.7243 1.84492 33.8684 2.08731 33.9634C2.3297 34.0583 2.58911 34.1021 2.84925 34.0921C3.10938 34.0821 3.36463 34.0183 3.59898 33.905C3.83332 33.7916 4.0417 33.631 4.21103 33.4333L17.9999 19.6633L31.7699 33.4333C32.1313 33.7427 32.5961 33.9044 33.0715 33.886C33.5469 33.8677 33.9978 33.6706 34.3342 33.3342C34.6706 32.9978 34.8677 32.5469 34.886 32.0715C34.9044 31.5961 34.7427 31.1313 34.4333 30.7699L20.6633 16.9999Z" fill="white"/>
</svg>
