<svg width="160" height="70" viewBox="0 0 160 70" fill="none" xmlns="http://www.w3.org/2000/svg">
<path d="M20 2H155C156.657 2 158 3.34315 158 5V40.8695C158 50.8107 149.941 58.8696 140 58.8696H5C3.34315 58.8696 2 57.5264 2 55.8696V20C2 10.0589 10.0589 2 20 2Z" stroke="white" stroke-width="4"/>
<path d="M19.9376 42C19.0416 42 18.5936 41.552 18.5936 40.656V21.648C18.5936 20.752 19.0416 20.304 19.9376 20.304H27.6496C30.4336 20.304 32.4816 20.9653 33.7936 22.288C35.1163 23.6 35.7776 25.648 35.7776 28.432V33.872C35.7776 36.656 35.1216 38.7093 33.8096 40.032C32.5083 41.344 30.455 42 27.6496 42H19.9376ZM21.2816 39.312H27.6496C29.015 39.312 30.0923 39.1467 30.8816 38.816C31.6816 38.4747 32.247 37.9093 32.5776 37.12C32.919 36.32 33.0896 35.2373 33.0896 33.872V28.432C33.0896 27.0773 32.919 26.0053 32.5776 25.216C32.247 24.416 31.6816 23.8453 30.8816 23.504C30.0923 23.1627 29.015 22.992 27.6496 22.992H21.2816V39.312ZM43.0001 42C42.1041 42 41.6561 41.552 41.6561 40.656V21.648C41.6561 20.752 42.1041 20.304 43.0001 20.304H54.4881C55.3841 20.304 55.8321 20.752 55.8321 21.648C55.8321 22.544 55.3841 22.992 54.4881 22.992H44.3441V29.712H50.7121C51.6081 29.712 52.0561 30.16 52.0561 31.056C52.0561 31.952 51.6081 32.4 50.7121 32.4H44.3441V39.312H54.4881C55.3841 39.312 55.8321 39.76 55.8321 40.656C55.8321 41.552 55.3841 42 54.4881 42H43.0001ZM67.7534 42C67.1987 42 66.7614 41.648 66.4414 40.944L58.5374 22.224C58.3774 21.8507 58.3347 21.52 58.4094 21.232C58.484 20.9333 58.7294 20.688 59.1454 20.496C60.02 20.0587 60.6387 20.2827 61.0014 21.168L68.4734 38.864H67.5454L74.8254 21.168C75.1774 20.2933 75.796 20.0693 76.6814 20.496C77.0547 20.688 77.284 20.9333 77.3694 21.232C77.4654 21.52 77.4387 21.8507 77.2894 22.224L69.3214 40.944C68.9907 41.648 68.5107 42 67.8814 42H67.7534ZM82.8439 42C81.9479 42 81.4999 41.552 81.4999 40.656V21.648C81.4999 20.752 81.9479 20.304 82.8439 20.304H90.5559C93.3399 20.304 95.3879 20.9653 96.6999 22.288C98.0225 23.6 98.6839 25.648 98.6839 28.432V33.872C98.6839 36.656 98.0279 38.7093 96.7159 40.032C95.4145 41.344 93.3612 42 90.5559 42H82.8439ZM84.1879 39.312H90.5559C91.9212 39.312 92.9985 39.1467 93.7879 38.816C94.5879 38.4747 95.1532 37.9093 95.4839 37.12C95.8252 36.32 95.9959 35.2373 95.9959 33.872V28.432C95.9959 27.0773 95.8252 26.0053 95.4839 25.216C95.1532 24.416 94.5879 23.8453 93.7879 23.504C92.9985 23.1627 91.9212 22.992 90.5559 22.992H84.1879V39.312ZM105.906 42C105.01 42 104.562 41.552 104.562 40.656V21.648C104.562 20.752 105.01 20.304 105.906 20.304H117.394C118.29 20.304 118.738 20.752 118.738 21.648C118.738 22.544 118.29 22.992 117.394 22.992H107.25V29.712H113.618C114.514 29.712 114.962 30.16 114.962 31.056C114.962 31.952 114.514 32.4 113.618 32.4H107.25V39.312H117.394C118.29 39.312 118.738 39.76 118.738 40.656C118.738 41.552 118.29 42 117.394 42H105.906ZM125.188 42C124.292 42 123.844 41.552 123.844 40.656V21.648C123.844 20.752 124.292 20.304 125.188 20.304C125.646 20.304 126.094 20.5707 126.532 21.104L139.396 37.68H138.724V21.648C138.724 20.752 139.172 20.304 140.068 20.304C140.964 20.304 141.412 20.752 141.412 21.648V40.656C141.412 41.552 140.964 42 140.068 42C139.588 42 139.14 41.7333 138.724 41.2L125.86 24.624H126.532V40.656C126.532 41.552 126.084 42 125.188 42Z" fill="white"/>
<path d="M33.7936 22.288L33.0836 22.9923L33.0894 22.998L33.7936 22.288ZM33.8096 40.032L33.0997 39.3278L33.0996 39.3278L33.8096 40.032ZM21.2816 39.312H20.2816V40.312H21.2816V39.312ZM30.8816 38.816L31.268 39.7384L31.2741 39.7358L30.8816 38.816ZM32.5776 37.12L31.6578 36.7276L31.6553 36.7336L32.5776 37.12ZM32.5776 25.216L31.6535 25.598L31.6566 25.6055L31.6598 25.6129L32.5776 25.216ZM30.8816 23.504L30.4847 24.4219L30.4892 24.4238L30.8816 23.504ZM21.2816 22.992V21.992H20.2816V22.992H21.2816ZM19.9376 41C19.6438 41 19.6071 40.9272 19.6367 40.9569C19.6664 40.9866 19.5936 40.9499 19.5936 40.656H17.5936C17.5936 41.2581 17.7448 41.8934 18.2225 42.3711C18.7002 42.8488 19.3355 43 19.9376 43V41ZM19.5936 40.656V21.648H17.5936V40.656H19.5936ZM19.5936 21.648C19.5936 21.3541 19.6664 21.3174 19.6367 21.3471C19.6071 21.3768 19.6438 21.304 19.9376 21.304V19.304C19.3355 19.304 18.7002 19.4552 18.2225 19.9329C17.7448 20.4106 17.5936 21.0459 17.5936 21.648H19.5936ZM19.9376 21.304H27.6496V19.304H19.9376V21.304ZM27.6496 21.304C30.2976 21.304 32.0348 21.9349 33.0837 22.9922L34.5036 21.5838C32.9284 19.9958 30.5696 19.304 27.6496 19.304V21.304ZM33.0894 22.998C34.1467 24.0468 34.7776 25.784 34.7776 28.432H36.7776C36.7776 25.512 36.0859 23.1532 34.4979 21.578L33.0894 22.998ZM34.7776 28.432V33.872H36.7776V28.432H34.7776ZM34.7776 33.872C34.7776 36.5211 34.1514 38.2674 33.0997 39.3278L34.5196 40.7362C36.0918 39.1512 36.7776 36.7909 36.7776 33.872H34.7776ZM33.0996 39.3278C32.064 40.3719 30.3244 41 27.6496 41V43C30.5856 43 32.9526 42.3161 34.5196 40.7362L33.0996 39.3278ZM27.6496 41H19.9376V43H27.6496V41ZM21.2816 40.312H27.6496V38.312H21.2816V40.312ZM27.6496 40.312C29.0778 40.312 30.3052 40.1417 31.268 39.7383L30.4952 37.8937C29.8794 38.1516 28.9521 38.312 27.6496 38.312V40.312ZM31.2741 39.7358C32.309 39.2942 33.067 38.54 33.5 37.5064L31.6553 36.7336C31.427 37.2786 31.0543 37.6551 30.4892 37.8962L31.2741 39.7358ZM33.4974 37.5124C33.9132 36.538 34.0896 35.3038 34.0896 33.872H32.0896C32.0896 35.1709 31.9247 36.102 31.6578 36.7276L33.4974 37.5124ZM34.0896 33.872V28.432H32.0896V33.872H34.0896ZM34.0896 28.432C34.0896 27.0107 33.9132 25.785 33.4955 24.8191L31.6598 25.6129C31.9247 26.2257 32.0896 27.144 32.0896 28.432H34.0896ZM33.5018 24.834C33.0706 23.7908 32.3136 23.0278 31.2741 22.5842L30.4892 24.4238C31.0497 24.6629 31.4233 25.0412 31.6535 25.598L33.5018 24.834ZM31.2785 22.5861C30.3119 22.1681 29.0803 21.992 27.6496 21.992V23.992C28.9496 23.992 29.8727 24.1572 30.4847 24.4219L31.2785 22.5861ZM27.6496 21.992H21.2816V23.992H27.6496V21.992ZM20.2816 22.992V39.312H22.2816V22.992H20.2816ZM44.3441 22.992V21.992H43.3441V22.992H44.3441ZM44.3441 29.712H43.3441V30.712H44.3441V29.712ZM44.3441 32.4V31.4H43.3441V32.4H44.3441ZM44.3441 39.312H43.3441V40.312H44.3441V39.312ZM43.0001 41C42.7063 41 42.6696 40.9272 42.6992 40.9569C42.7289 40.9866 42.6561 40.9499 42.6561 40.656H40.6561C40.6561 41.2581 40.8073 41.8934 41.285 42.3711C41.7627 42.8488 42.398 43 43.0001 43V41ZM42.6561 40.656V21.648H40.6561V40.656H42.6561ZM42.6561 21.648C42.6561 21.3541 42.7289 21.3174 42.6992 21.3471C42.6696 21.3768 42.7063 21.304 43.0001 21.304V19.304C42.398 19.304 41.7627 19.4552 41.285 19.9329C40.8073 20.4106 40.6561 21.0459 40.6561 21.648H42.6561ZM43.0001 21.304H54.4881V19.304H43.0001V21.304ZM54.4881 21.304C54.782 21.304 54.8187 21.3768 54.789 21.3471C54.7593 21.3174 54.8321 21.3541 54.8321 21.648H56.8321C56.8321 21.0459 56.6809 20.4106 56.2032 19.9329C55.7256 19.4552 55.0903 19.304 54.4881 19.304V21.304ZM54.8321 21.648C54.8321 21.9419 54.7593 21.9786 54.789 21.9489C54.8187 21.9192 54.782 21.992 54.4881 21.992V23.992C55.0903 23.992 55.7256 23.8408 56.2032 23.3631C56.6809 22.8854 56.8321 22.2501 56.8321 21.648H54.8321ZM54.4881 21.992H44.3441V23.992H54.4881V21.992ZM43.3441 22.992V29.712H45.3441V22.992H43.3441ZM44.3441 30.712H50.7121V28.712H44.3441V30.712ZM50.7121 30.712C51.006 30.712 51.0427 30.7848 51.013 30.7551C50.9833 30.7254 51.0561 30.7621 51.0561 31.056H53.0561C53.0561 30.4539 52.9049 29.8186 52.4272 29.3409C51.9496 28.8632 51.3143 28.712 50.7121 28.712V30.712ZM51.0561 31.056C51.0561 31.3499 50.9833 31.3866 51.013 31.3569C51.0427 31.3272 51.006 31.4 50.7121 31.4V33.4C51.3143 33.4 51.9496 33.2488 52.4272 32.7711C52.9049 32.2934 53.0561 31.6581 53.0561 31.056H51.0561ZM50.7121 31.4H44.3441V33.4H50.7121V31.4ZM43.3441 32.4V39.312H45.3441V32.4H43.3441ZM44.3441 40.312H54.4881V38.312H44.3441V40.312ZM54.4881 40.312C54.782 40.312 54.8187 40.3848 54.789 40.3551C54.7593 40.3254 54.8321 40.3621 54.8321 40.656H56.8321C56.8321 40.0539 56.6809 39.4186 56.2032 38.9409C55.7256 38.4632 55.0903 38.312 54.4881 38.312V40.312ZM54.8321 40.656C54.8321 40.9499 54.7593 40.9866 54.789 40.9569C54.8187 40.9272 54.782 41 54.4881 41V43C55.0903 43 55.7256 42.8488 56.2032 42.3711C56.6809 41.8934 56.8321 41.2581 56.8321 40.656H54.8321ZM54.4881 41H43.0001V43H54.4881V41ZM66.4414 40.944L65.5201 41.333L65.5254 41.3455L65.531 41.3578L66.4414 40.944ZM58.5374 22.224L59.4586 21.835L59.4565 21.8301L58.5374 22.224ZM58.4094 21.232L59.3774 21.483L59.3795 21.4745L58.4094 21.232ZM59.1454 20.496L59.5644 21.404L59.5786 21.3974L59.5926 21.3904L59.1454 20.496ZM61.0014 21.168L60.076 21.5471L60.0801 21.557L61.0014 21.168ZM68.4734 38.864V39.864H69.9811L69.3946 38.475L68.4734 38.864ZM67.5454 38.864L66.6206 38.4835L66.0527 39.864H67.5454V38.864ZM74.8254 21.168L75.7502 21.5485L75.7531 21.5413L74.8254 21.168ZM76.6814 20.496L77.1387 19.6067L77.1272 19.6008L77.1155 19.5952L76.6814 20.496ZM77.3694 21.232L76.4079 21.5067L76.4138 21.5276L76.4207 21.5482L77.3694 21.232ZM77.2894 22.224L78.2095 22.6156L78.2138 22.6056L78.2178 22.5954L77.2894 22.224ZM69.3214 40.944L70.2265 41.3691L70.2343 41.3525L70.2415 41.3356L69.3214 40.944ZM67.7534 41C67.7071 41 67.6797 40.9919 67.6364 40.957C67.5764 40.9087 67.4702 40.7908 67.3517 40.5302L65.531 41.3578C65.9384 42.2541 66.6531 43 67.7534 43V41ZM67.3626 40.555L59.4586 21.835L57.6161 22.613L65.5201 41.333L67.3626 40.555ZM59.4565 21.8301C59.3523 21.5869 59.3755 21.4902 59.3774 21.483L57.4414 20.981C57.2939 21.5498 57.4025 22.1145 57.6182 22.6179L59.4565 21.8301ZM59.3795 21.4745C59.3744 21.4951 59.3666 21.5126 59.3593 21.525C59.3524 21.5368 59.3491 21.5384 59.3565 21.5311C59.3738 21.5138 59.4312 21.4655 59.5644 21.404L58.7263 19.588C58.1732 19.8433 57.6176 20.2759 57.4392 20.9895L59.3795 21.4745ZM59.5926 21.3904C59.9039 21.2348 59.9763 21.2949 59.9249 21.2763C59.8671 21.2553 59.9523 21.2451 60.076 21.5471L61.9267 20.7889C61.6878 20.2056 61.2824 19.6407 60.6058 19.3957C59.9357 19.1531 59.2615 19.3199 58.6982 19.6016L59.5926 21.3904ZM60.0801 21.557L67.5521 39.253L69.3946 38.475L61.9226 20.779L60.0801 21.557ZM68.4734 37.864H67.5454V39.864H68.4734V37.864ZM68.4702 39.2445L75.7502 21.5485L73.9006 20.7875L66.6206 38.4835L68.4702 39.2445ZM75.7531 21.5413C75.8699 21.2509 75.9512 21.2635 75.8938 21.2843C75.8484 21.3007 75.9281 21.243 76.2472 21.3968L77.1155 19.5952C76.5493 19.3223 75.877 19.1633 75.2129 19.4037C74.5369 19.6485 74.1328 20.2104 73.8977 20.7947L75.7531 21.5413ZM76.224 21.3853C76.333 21.4413 76.3836 21.4862 76.4028 21.5069C76.4182 21.5233 76.4122 21.522 76.4079 21.5067L78.3309 20.9573C78.1458 20.3094 77.6681 19.879 77.1387 19.6067L76.224 21.3853ZM76.4207 21.5482C76.4223 21.5532 76.4281 21.5718 76.4246 21.6156C76.4208 21.6625 76.406 21.74 76.3609 21.8526L78.2178 22.5954C78.4262 22.0745 78.5102 21.4922 78.3181 20.9158L76.4207 21.5482ZM76.3693 21.8324L68.4013 40.5524L70.2415 41.3356L78.2095 22.6156L76.3693 21.8324ZM68.4162 40.5189C68.3009 40.7645 68.1921 40.8782 68.122 40.9296C68.0637 40.9724 67.9963 41 67.8814 41V43C68.3958 43 68.883 42.8516 69.3047 42.5424C69.7146 42.2418 70.0112 41.8275 70.2265 41.3691L68.4162 40.5189ZM67.8814 41H67.7534V43H67.8814V41ZM96.6999 22.288L95.9899 22.9923L95.9956 22.998L96.6999 22.288ZM96.7159 40.032L96.0059 39.3278L96.0059 39.3278L96.7159 40.032ZM84.1879 39.312H83.1879V40.312H84.1879V39.312ZM93.7879 38.816L94.1743 39.7384L94.1803 39.7358L93.7879 38.816ZM95.4839 37.12L94.5641 36.7276L94.5615 36.7336L95.4839 37.12ZM95.4839 25.216L94.5597 25.598L94.5628 25.6055L94.566 25.6129L95.4839 25.216ZM93.7879 23.504L93.391 24.4219L93.3954 24.4238L93.7879 23.504ZM84.1879 22.992V21.992H83.1879V22.992H84.1879ZM82.8439 41C82.55 41 82.5133 40.9272 82.543 40.9569C82.5727 40.9866 82.4999 40.9499 82.4999 40.656H80.4999C80.4999 41.2581 80.6511 41.8934 81.1288 42.3711C81.6064 42.8488 82.2417 43 82.8439 43V41ZM82.4999 40.656V21.648H80.4999V40.656H82.4999ZM82.4999 21.648C82.4999 21.3541 82.5727 21.3174 82.543 21.3471C82.5133 21.3768 82.55 21.304 82.8439 21.304V19.304C82.2417 19.304 81.6064 19.4552 81.1288 19.9329C80.6511 20.4106 80.4999 21.0459 80.4999 21.648H82.4999ZM82.8439 21.304H90.5559V19.304H82.8439V21.304ZM90.5559 21.304C93.2039 21.304 94.9411 21.9349 95.9899 22.9922L97.4098 21.5838C95.8347 19.9958 93.4759 19.304 90.5559 19.304V21.304ZM95.9956 22.998C97.053 24.0468 97.6839 25.784 97.6839 28.432H99.6839C99.6839 25.512 98.9921 23.1532 97.4041 21.578L95.9956 22.998ZM97.6839 28.432V33.872H99.6839V28.432H97.6839ZM97.6839 33.872C97.6839 36.5211 97.0577 38.2674 96.0059 39.3278L97.4258 40.7362C98.9981 39.1512 99.6839 36.7909 99.6839 33.872H97.6839ZM96.0059 39.3278C94.9703 40.3719 93.2306 41 90.5559 41V43C93.4918 43 95.8588 42.3161 97.4259 40.7362L96.0059 39.3278ZM90.5559 41H82.8439V43H90.5559V41ZM84.1879 40.312H90.5559V38.312H84.1879V40.312ZM90.5559 40.312C91.9841 40.312 93.2114 40.1417 94.1743 39.7383L93.4015 37.8937C92.7857 38.1516 91.8584 38.312 90.5559 38.312V40.312ZM94.1803 39.7358C95.2152 39.2942 95.9732 38.54 96.4062 37.5064L94.5615 36.7336C94.3332 37.2786 93.9605 37.6551 93.3954 37.8962L94.1803 39.7358ZM96.4037 37.5124C96.8194 36.538 96.9959 35.3038 96.9959 33.872H94.9959C94.9959 35.1709 94.831 36.102 94.5641 36.7276L96.4037 37.5124ZM96.9959 33.872V28.432H94.9959V33.872H96.9959ZM96.9959 28.432C96.9959 27.0107 96.8194 25.785 96.4017 24.8191L94.566 25.6129C94.831 26.2257 94.9959 27.144 94.9959 28.432H96.9959ZM96.408 24.834C95.9768 23.7908 95.2198 23.0278 94.1803 22.5842L93.3954 24.4238C93.9559 24.6629 94.3296 25.0412 94.5597 25.598L96.408 24.834ZM94.1848 22.5861C93.2181 22.1681 91.9866 21.992 90.5559 21.992V23.992C91.8559 23.992 92.779 24.1572 93.391 24.4219L94.1848 22.5861ZM90.5559 21.992H84.1879V23.992H90.5559V21.992ZM83.1879 22.992V39.312H85.1879V22.992H83.1879ZM107.25 22.992V21.992H106.25V22.992H107.25ZM107.25 29.712H106.25V30.712H107.25V29.712ZM107.25 32.4V31.4H106.25V32.4H107.25ZM107.25 39.312H106.25V40.312H107.25V39.312ZM105.906 41C105.613 41 105.576 40.9272 105.605 40.9569C105.635 40.9866 105.562 40.9499 105.562 40.656H103.562C103.562 41.2581 103.714 41.8934 104.191 42.3711C104.669 42.8488 105.304 43 105.906 43V41ZM105.562 40.656V21.648H103.562V40.656H105.562ZM105.562 21.648C105.562 21.3541 105.635 21.3174 105.605 21.3471C105.576 21.3768 105.613 21.304 105.906 21.304V19.304C105.304 19.304 104.669 19.4552 104.191 19.9329C103.714 20.4106 103.562 21.0459 103.562 21.648H105.562ZM105.906 21.304H117.394V19.304H105.906V21.304ZM117.394 21.304C117.688 21.304 117.725 21.3768 117.695 21.3471C117.666 21.3174 117.738 21.3541 117.738 21.648H119.738C119.738 21.0459 119.587 20.4106 119.109 19.9329C118.632 19.4552 117.997 19.304 117.394 19.304V21.304ZM117.738 21.648C117.738 21.9419 117.666 21.9786 117.695 21.9489C117.725 21.9192 117.688 21.992 117.394 21.992V23.992C117.997 23.992 118.632 23.8408 119.109 23.3631C119.587 22.8854 119.738 22.2501 119.738 21.648H117.738ZM117.394 21.992H107.25V23.992H117.394V21.992ZM106.25 22.992V29.712H108.25V22.992H106.25ZM107.25 30.712H113.618V28.712H107.25V30.712ZM113.618 30.712C113.912 30.712 113.949 30.7848 113.919 30.7551C113.89 30.7254 113.962 30.7621 113.962 31.056H115.962C115.962 30.4539 115.811 29.8186 115.333 29.3409C114.856 28.8632 114.221 28.712 113.618 28.712V30.712ZM113.962 31.056C113.962 31.3499 113.89 31.3866 113.919 31.3569C113.949 31.3272 113.912 31.4 113.618 31.4V33.4C114.221 33.4 114.856 33.2488 115.333 32.7711C115.811 32.2934 115.962 31.6581 115.962 31.056H113.962ZM113.618 31.4H107.25V33.4H113.618V31.4ZM106.25 32.4V39.312H108.25V32.4H106.25ZM107.25 40.312H117.394V38.312H107.25V40.312ZM117.394 40.312C117.688 40.312 117.725 40.3848 117.695 40.3551C117.666 40.3254 117.738 40.3621 117.738 40.656H119.738C119.738 40.0539 119.587 39.4186 119.109 38.9409C118.632 38.4632 117.997 38.312 117.394 38.312V40.312ZM117.738 40.656C117.738 40.9499 117.666 40.9866 117.695 40.9569C117.725 40.9272 117.688 41 117.394 41V43C117.997 43 118.632 42.8488 119.109 42.3711C119.587 41.8934 119.738 41.2581 119.738 40.656H117.738ZM117.394 41H105.906V43H117.394V41ZM126.532 21.104L127.322 20.4909L127.313 20.4803L127.305 20.4699L126.532 21.104ZM139.396 37.68V38.68H141.438L140.186 37.0669L139.396 37.68ZM138.724 37.68H137.724V38.68H138.724V37.68ZM138.724 41.2L137.934 41.8131L137.935 41.815L138.724 41.2ZM125.86 24.624V23.624H123.818L125.07 25.2371L125.86 24.624ZM126.532 24.624H127.532V23.624H126.532V24.624ZM125.188 41C124.894 41 124.857 40.9272 124.887 40.9569C124.916 40.9866 124.844 40.9499 124.844 40.656H122.844C122.844 41.2581 122.995 41.8934 123.473 42.3711C123.95 42.8488 124.585 43 125.188 43V41ZM124.844 40.656V21.648H122.844V40.656H124.844ZM124.844 21.648C124.844 21.3541 124.916 21.3174 124.887 21.3471C124.857 21.3768 124.894 21.304 125.188 21.304V19.304C124.585 19.304 123.95 19.4552 123.473 19.9329C122.995 20.4106 122.844 21.0459 122.844 21.648H124.844ZM125.188 21.304C125.221 21.304 125.413 21.3174 125.758 21.7381L127.305 20.4699C126.775 19.8239 126.072 19.304 125.188 19.304V21.304ZM125.742 21.7171L138.606 38.2931L140.186 37.0669L127.322 20.4909L125.742 21.7171ZM139.396 36.68H138.724V38.68H139.396V36.68ZM139.724 37.68V21.648H137.724V37.68H139.724ZM139.724 21.648C139.724 21.3541 139.796 21.3174 139.767 21.3471C139.737 21.3768 139.774 21.304 140.068 21.304V19.304C139.465 19.304 138.83 19.4552 138.353 19.9329C137.875 20.4106 137.724 21.0459 137.724 21.648H139.724ZM140.068 21.304C140.361 21.304 140.398 21.3768 140.369 21.3471C140.339 21.3174 140.412 21.3541 140.412 21.648H142.412C142.412 21.0459 142.26 20.4106 141.783 19.9329C141.305 19.4552 140.67 19.304 140.068 19.304V21.304ZM140.412 21.648V40.656H142.412V21.648H140.412ZM140.412 40.656C140.412 40.9499 140.339 40.9866 140.369 40.9569C140.398 40.9272 140.361 41 140.068 41V43C140.67 43 141.305 42.8488 141.783 42.3711C142.26 41.8934 142.412 41.2581 142.412 40.656H140.412ZM140.068 41C140.008 41 139.82 40.9802 139.512 40.585L137.935 41.815C138.459 42.4864 139.167 43 140.068 43V41ZM139.514 40.5869L126.65 24.0109L125.07 25.2371L137.934 41.8131L139.514 40.5869ZM125.86 25.624H126.532V23.624H125.86V25.624ZM125.532 24.624V40.656H127.532V24.624H125.532ZM125.532 40.656C125.532 40.9499 125.459 40.9866 125.489 40.9569C125.518 40.9272 125.481 41 125.188 41V43C125.79 43 126.425 42.8488 126.903 42.3711C127.38 41.8934 127.532 41.2581 127.532 40.656H125.532Z" fill="white"/>
<ellipse cx="8.66239" cy="53.2608" rx="2.54777" ry="2.53623" fill="white"/>
<ellipse cx="151.338" cy="8.62315" rx="2.54777" ry="2.53623" fill="white"/>
<path d="M9.4166 67.8695C9.32793 67.8695 9.26843 67.8217 9.2381 67.726L7.8976 63.603C7.87893 63.5493 7.88593 63.4957 7.9186 63.442C7.95126 63.386 8.0026 63.358 8.0726 63.358C8.11226 63.358 8.14726 63.3697 8.1776 63.393C8.21026 63.414 8.23243 63.4467 8.2441 63.491L9.4901 67.32H9.3886L10.5681 63.5015C10.5844 63.4502 10.6124 63.4128 10.6521 63.3895C10.6941 63.3662 10.7373 63.3545 10.7816 63.3545C10.8283 63.3545 10.8726 63.3662 10.9146 63.3895C10.9566 63.4128 10.9834 63.4502 10.9951 63.5015L12.1746 67.32H12.0731L13.3191 63.491C13.3354 63.4467 13.3576 63.414 13.3856 63.393C13.4159 63.3697 13.4509 63.358 13.4906 63.358C13.5699 63.358 13.6236 63.3848 13.6516 63.4385C13.6819 63.4922 13.6878 63.547 13.6691 63.603L12.3251 67.726C12.2948 67.8217 12.2306 67.8695 12.1326 67.8695H12.1186C12.0183 67.8695 11.9541 67.8217 11.9261 67.726L10.7256 63.869H10.8271L9.6266 67.726C9.61026 67.7843 9.5846 67.8228 9.5496 67.8415C9.5146 67.8602 9.47026 67.8695 9.4166 67.8695ZM18.8175 67.8695C18.6939 67.8695 18.632 67.8077 18.632 67.684V63.5435C18.632 63.4198 18.6939 63.358 18.8175 63.358H21.439C21.5627 63.358 21.6245 63.4198 21.6245 63.5435C21.6245 63.6648 21.5627 63.7255 21.439 63.7255H18.9995V65.402H20.613C20.7367 65.402 20.7985 65.4627 20.7985 65.584C20.7985 65.7077 20.7367 65.7695 20.613 65.7695H18.9995V67.502H21.439C21.5627 67.502 21.6245 67.5627 21.6245 67.684C21.6245 67.8077 21.5627 67.8695 21.439 67.8695H18.8175ZM26.9414 67.8695C26.8177 67.8695 26.7559 67.8077 26.7559 67.684V63.5435C26.7559 63.4198 26.8177 63.358 26.9414 63.358H28.7684C29.1114 63.358 29.3704 63.4455 29.5454 63.6205C29.7227 63.7932 29.8114 64.0475 29.8114 64.3835V64.5725C29.8114 64.9388 29.6935 65.1978 29.4579 65.3495C29.8662 65.5175 30.0704 65.8815 30.0704 66.4415V66.662C30.0704 67.0587 29.9677 67.3597 29.7624 67.565C29.5594 67.768 29.2584 67.8695 28.8594 67.8695H26.9414ZM27.1234 67.502H28.8594C29.1557 67.502 29.3704 67.4355 29.5034 67.3025C29.6364 67.1695 29.7029 66.956 29.7029 66.662V66.4415C29.7029 66.1475 29.6364 65.9352 29.5034 65.8045C29.3727 65.6738 29.158 65.6085 28.8594 65.6085H27.1234V67.502ZM27.1234 65.241H28.8209C29.0332 65.241 29.1895 65.1873 29.2899 65.08C29.3925 64.9703 29.4439 64.8012 29.4439 64.5725V64.3835C29.4439 64.1502 29.3902 63.9822 29.2829 63.8795C29.1779 63.7768 29.0064 63.7255 28.7684 63.7255H27.1234V65.241ZM35.4822 67.8695C35.3585 67.8695 35.2967 67.8077 35.2967 67.684V63.5435C35.2967 63.4198 35.3585 63.358 35.4822 63.358H37.1692C37.7502 63.358 38.1725 63.491 38.4362 63.757C38.7022 64.023 38.8352 64.4465 38.8352 65.0275V66.2C38.8352 66.781 38.7022 67.2045 38.4362 67.4705C38.1725 67.7365 37.7502 67.8695 37.1692 67.8695H35.4822ZM35.6642 67.502H37.1692C37.4865 67.502 37.7397 67.46 37.9287 67.376C38.12 67.292 38.2577 67.1555 38.3417 66.9665C38.4257 66.7752 38.4677 66.5197 38.4677 66.2V65.0275C38.4677 64.7102 38.4257 64.457 38.3417 64.268C38.2577 64.0767 38.12 63.939 37.9287 63.855C37.7397 63.7687 37.4865 63.7255 37.1692 63.7255H35.6642V67.502ZM44.4332 67.8695C44.3095 67.8695 44.2477 67.8077 44.2477 67.684V63.5435C44.2477 63.4198 44.3095 63.358 44.4332 63.358H47.0547C47.1783 63.358 47.2402 63.4198 47.2402 63.5435C47.2402 63.6648 47.1783 63.7255 47.0547 63.7255H44.6152V65.402H46.2287C46.3523 65.402 46.4142 65.4627 46.4142 65.584C46.4142 65.7077 46.3523 65.7695 46.2287 65.7695H44.6152V67.502H47.0547C47.1783 67.502 47.2402 67.5627 47.2402 67.684C47.2402 67.8077 47.1783 67.8695 47.0547 67.8695H44.4332ZM53.8205 67.8695C53.7412 67.8695 53.684 67.8275 53.649 67.7435L51.8325 63.6205C51.8022 63.5528 51.8022 63.4968 51.8325 63.4525C51.8652 63.4082 51.9095 63.3802 51.9655 63.3685C52.0612 63.3452 52.1277 63.3802 52.165 63.4735L53.915 67.4425H53.7855L55.525 63.4735C55.5623 63.3802 55.63 63.3452 55.728 63.3685C55.7887 63.3802 55.833 63.4082 55.861 63.4525C55.889 63.4968 55.889 63.5528 55.861 63.6205L54.0375 67.7435C54.0025 67.8275 53.943 67.8695 53.859 67.8695H53.8205ZM61.0158 67.8695C60.8921 67.8695 60.8303 67.8077 60.8303 67.684V63.5435C60.8303 63.4198 60.8921 63.358 61.0158 63.358H63.6373C63.7609 63.358 63.8228 63.4198 63.8228 63.5435C63.8228 63.6648 63.7609 63.7255 63.6373 63.7255H61.1978V65.402H62.8113C62.9349 65.402 62.9968 65.4627 62.9968 65.584C62.9968 65.7077 62.9349 65.7695 62.8113 65.7695H61.1978V67.502H63.6373C63.7609 67.502 63.8228 67.5627 63.8228 67.684C63.8228 67.8077 63.7609 67.8695 63.6373 67.8695H61.0158ZM69.1396 67.8695C69.0159 67.8695 68.9541 67.8077 68.9541 67.684V63.5435C68.9541 63.4198 69.0159 63.358 69.1396 63.358C69.2609 63.358 69.3216 63.4198 69.3216 63.5435V67.502H71.4496C71.5733 67.502 71.6351 67.5627 71.6351 67.684C71.6351 67.8077 71.5733 67.8695 71.4496 67.8695H69.1396ZM77.8824 67.8695C77.3761 67.8695 77.0062 67.7528 76.7729 67.5195C76.5396 67.2862 76.4229 66.9163 76.4229 66.41V64.814C76.4229 64.303 76.5396 63.932 76.7729 63.701C77.0062 63.4677 77.3737 63.3533 77.8754 63.358H78.7224C79.2287 63.358 79.5974 63.4747 79.8284 63.708C80.0617 63.9413 80.1784 64.3112 80.1784 64.8175V66.41C80.1784 66.9163 80.0617 67.2862 79.8284 67.5195C79.5974 67.7528 79.2287 67.8695 78.7224 67.8695H77.8824ZM77.8824 67.502H78.7224C78.9907 67.502 79.2042 67.467 79.3629 67.397C79.5216 67.327 79.6359 67.2127 79.7059 67.054C79.7759 66.8953 79.8109 66.6807 79.8109 66.41V64.8175C79.8109 64.5492 79.7759 64.3357 79.7059 64.177C79.6359 64.0183 79.5216 63.904 79.3629 63.834C79.2042 63.7617 78.9907 63.7255 78.7224 63.7255H77.8754C77.6071 63.7232 77.3936 63.757 77.2349 63.827C77.0786 63.8947 76.9654 64.009 76.8954 64.17C76.8254 64.3287 76.7904 64.5433 76.7904 64.814V66.41C76.7904 66.6807 76.8254 66.8953 76.8954 67.054C76.9654 67.2127 77.0797 67.327 77.2384 67.397C77.3971 67.467 77.6117 67.502 77.8824 67.502ZM85.7769 67.8695C85.6532 67.8695 85.5914 67.8077 85.5914 67.684V63.5435C85.5914 63.4198 85.6532 63.358 85.7769 63.358H87.4149C87.8139 63.358 88.1149 63.4607 88.3179 63.666C88.5232 63.8713 88.6259 64.1735 88.6259 64.5725V64.7825C88.6259 65.1792 88.5232 65.4802 88.3179 65.6855C88.1149 65.8908 87.8139 65.9935 87.4149 65.9935H85.9589V67.684C85.9589 67.8077 85.8982 67.8695 85.7769 67.8695ZM85.9589 65.626H87.4149C87.7089 65.626 87.9224 65.5595 88.0554 65.4265C88.1907 65.2912 88.2584 65.0765 88.2584 64.7825V64.5725C88.2584 64.2762 88.1907 64.0615 88.0554 63.9285C87.9224 63.7932 87.7089 63.7255 87.4149 63.7255H85.9589V65.626ZM93.9007 67.8695C93.7771 67.8695 93.7152 67.8077 93.7152 67.684V63.5435C93.7152 63.4198 93.7771 63.358 93.9007 63.358H96.5222C96.6459 63.358 96.7077 63.4198 96.7077 63.5435C96.7077 63.6648 96.6459 63.7255 96.5222 63.7255H94.0827V65.402H95.6962C95.8199 65.402 95.8817 65.4627 95.8817 65.584C95.8817 65.7077 95.8199 65.7695 95.6962 65.7695H94.0827V67.502H96.5222C96.6459 67.502 96.7077 67.5627 96.7077 67.684C96.7077 67.8077 96.6459 67.8695 96.5222 67.8695H93.9007ZM104.891 67.8765C104.84 67.9068 104.793 67.9173 104.751 67.908C104.709 67.8987 104.672 67.8695 104.639 67.8205L103.491 65.9935H102.207V67.684C102.207 67.8077 102.146 67.8695 102.025 67.8695C101.901 67.8695 101.839 67.8077 101.839 67.684V63.5435C101.839 63.4198 101.901 63.358 102.025 63.358H103.663C104.062 63.358 104.363 63.4607 104.566 63.666C104.771 63.8713 104.874 64.1735 104.874 64.5725V64.7825C104.874 65.1348 104.793 65.4113 104.632 65.612C104.471 65.8127 104.233 65.9352 103.918 65.9795L104.951 67.6245C105.016 67.7318 104.996 67.8158 104.891 67.8765ZM102.207 65.626H103.663C103.957 65.626 104.17 65.5595 104.303 65.4265C104.438 65.2912 104.506 65.0765 104.506 64.7825V64.5725C104.506 64.2762 104.438 64.0615 104.303 63.9285C104.17 63.7932 103.957 63.7255 103.663 63.7255H102.207V65.626ZM116.331 67.8695C116.207 67.8695 116.145 67.8077 116.145 67.684V63.5435C116.145 63.4198 116.207 63.358 116.331 63.358H118.018C118.599 63.358 119.021 63.491 119.285 63.757C119.551 64.023 119.684 64.4465 119.684 65.0275V66.2C119.684 66.781 119.551 67.2045 119.285 67.4705C119.021 67.7365 118.599 67.8695 118.018 67.8695H116.331ZM116.513 67.502H118.018C118.335 67.502 118.588 67.46 118.777 67.376C118.969 67.292 119.106 67.1555 119.19 66.9665C119.274 66.7752 119.316 66.5197 119.316 66.2V65.0275C119.316 64.7102 119.274 64.457 119.19 64.268C119.106 64.0767 118.969 63.939 118.777 63.855C118.588 63.7687 118.335 63.7255 118.018 63.7255H116.513V67.502ZM125.282 67.8695C125.158 67.8695 125.096 67.8077 125.096 67.684V63.5435C125.096 63.4198 125.158 63.358 125.282 63.358H127.903C128.027 63.358 128.089 63.4198 128.089 63.5435C128.089 63.6648 128.027 63.7255 127.903 63.7255H125.464V65.402H127.077C127.201 65.402 127.263 65.4627 127.263 65.584C127.263 65.7077 127.201 65.7695 127.077 65.7695H125.464V67.502H127.903C128.027 67.502 128.089 67.5627 128.089 67.684C128.089 67.8077 128.027 67.8695 127.903 67.8695H125.282ZM133.406 67.8695C133.282 67.8695 133.22 67.8077 133.22 67.684V63.5435C133.22 63.4198 133.282 63.358 133.406 63.358C133.471 63.358 133.534 63.3942 133.595 63.4665L136.559 67.2745H136.475V63.5435C136.475 63.4198 136.537 63.358 136.661 63.358C136.782 63.358 136.843 63.4198 136.843 63.5435V67.684C136.843 67.8077 136.782 67.8695 136.661 67.8695C136.593 67.8695 136.53 67.8333 136.472 67.761L133.504 63.953H133.588V67.684C133.588 67.8077 133.527 67.8695 133.406 67.8695ZM142.534 67.8695C142.476 67.8695 142.431 67.8532 142.398 67.8205C142.365 67.7878 142.349 67.7423 142.349 67.684V63.54C142.349 63.4817 142.365 63.4362 142.398 63.4035C142.431 63.3708 142.476 63.3545 142.534 63.3545C142.59 63.3545 142.635 63.3708 142.667 63.4035C142.7 63.4362 142.716 63.4817 142.716 63.54V67.684C142.716 67.7423 142.7 67.7878 142.667 67.8205C142.635 67.8532 142.59 67.8695 142.534 67.8695ZM149.382 67.8625C148.964 67.8625 148.654 67.7703 148.451 67.586C148.25 67.3993 148.143 67.1065 148.129 66.7075C148.127 66.6515 148.142 66.6072 148.175 66.5745C148.21 66.5395 148.255 66.522 148.311 66.522C148.367 66.522 148.411 66.5383 148.444 66.571C148.477 66.6037 148.495 66.648 148.5 66.704C148.509 66.998 148.579 67.2033 148.71 67.32C148.841 67.4367 149.065 67.495 149.382 67.495H150.39C150.721 67.495 150.951 67.4308 151.08 67.3025C151.21 67.1718 151.276 66.9432 151.276 66.6165C151.276 66.2852 151.21 66.0553 151.08 65.927C150.951 65.7963 150.721 65.731 150.39 65.731H149.431C149.02 65.731 148.719 65.6353 148.528 65.444C148.337 65.2527 148.241 64.9528 148.241 64.5445C148.241 64.1362 148.336 63.8363 148.525 63.645C148.716 63.4537 149.016 63.358 149.424 63.358H150.404C150.796 63.358 151.087 63.4455 151.276 63.6205C151.467 63.7955 151.57 64.0708 151.584 64.4465C151.588 64.5025 151.573 64.548 151.538 64.583C151.505 64.6157 151.46 64.632 151.402 64.632C151.348 64.632 151.305 64.6157 151.272 64.583C151.239 64.5503 151.221 64.506 151.216 64.45C151.207 64.1817 151.141 63.9938 151.02 63.8865C150.899 63.7792 150.693 63.7255 150.404 63.7255H149.424C149.118 63.7255 148.906 63.7862 148.787 63.9075C148.668 64.0265 148.609 64.2388 148.609 64.5445C148.609 64.8502 148.668 65.0637 148.787 65.185C148.908 65.304 149.123 65.3635 149.431 65.3635H150.39C150.824 65.3635 151.141 65.465 151.342 65.668C151.543 65.8687 151.643 66.1848 151.643 66.6165C151.643 67.0482 151.543 67.3643 151.342 67.565C151.141 67.7633 150.824 67.8625 150.39 67.8625H149.382Z" fill="white"/>
<path d="M9.2381 67.726L9.52407 67.6353L9.5234 67.6332L9.2381 67.726ZM7.8976 63.603L8.18296 63.5102L8.18095 63.5045L7.8976 63.603ZM7.9186 63.442L8.1749 63.598L8.17773 63.5932L7.9186 63.442ZM8.1776 63.393L7.99468 63.6308L8.00472 63.6385L8.01537 63.6454L8.1776 63.393ZM8.2441 63.491L7.95397 63.5674L7.95616 63.5757L7.95882 63.5838L8.2441 63.491ZM9.4901 67.32V67.62H9.9032L9.77537 67.2272L9.4901 67.32ZM9.3886 67.32L9.10196 67.2315L8.98194 67.62H9.3886V67.32ZM10.5681 63.5015L10.2822 63.4105L10.2815 63.413L10.5681 63.5015ZM10.6521 63.3895L10.5064 63.1272L10.5 63.1309L10.6521 63.3895ZM10.9951 63.5015L10.7026 63.568L10.7051 63.5791L10.7085 63.59L10.9951 63.5015ZM12.1746 67.32V67.62H12.5813L12.4612 67.2315L12.1746 67.32ZM12.0731 67.32L11.7878 67.2272L11.66 67.62H12.0731V67.32ZM13.3191 63.491L13.0374 63.3872L13.0338 63.3982L13.3191 63.491ZM13.3856 63.393L13.5656 63.633L13.5685 63.6308L13.3856 63.393ZM13.6516 63.4385L13.3855 63.5774L13.3904 63.5861L13.6516 63.4385ZM13.6691 63.603L13.3845 63.5081L13.3839 63.51L13.6691 63.603ZM12.3251 67.726L12.0399 67.633L12.0391 67.6353L12.3251 67.726ZM11.9261 67.726L12.2141 67.6417L12.2125 67.6368L11.9261 67.726ZM10.7256 63.869V63.569H10.318L10.4392 63.9582L10.7256 63.869ZM10.8271 63.869L11.1135 63.9582L11.2347 63.569H10.8271V63.869ZM9.6266 67.726L9.34003 67.6368L9.33771 67.6451L9.6266 67.726ZM9.5496 67.8415L9.69077 68.1062H9.69077L9.5496 67.8415ZM9.4166 67.5695C9.42907 67.5695 9.46154 67.5742 9.49344 67.5998C9.52219 67.6229 9.52691 67.6443 9.52407 67.6353L8.95213 67.8167C8.97962 67.9034 9.02925 67.9965 9.11751 68.0674C9.2089 68.1409 9.31546 68.1695 9.4166 68.1695V67.5695ZM9.5234 67.6332L8.1829 63.5102L7.6123 63.6958L8.9528 67.8188L9.5234 67.6332ZM8.18095 63.5045C8.18615 63.5194 8.18916 63.5396 8.18633 63.5613C8.18361 63.5821 8.17682 63.5948 8.17486 63.598L7.66234 63.286C7.58866 63.4071 7.56279 63.5536 7.61425 63.7016L8.18095 63.5045ZM8.17773 63.5932C8.1696 63.6071 8.15268 63.6274 8.12525 63.6424C8.09894 63.6567 8.07793 63.658 8.0726 63.658V63.058C7.90625 63.058 7.75091 63.1341 7.65946 63.2908L8.17773 63.5932ZM8.0726 63.658C8.06261 63.658 8.04904 63.6565 8.03373 63.6514C8.0183 63.6462 8.00505 63.6388 7.99468 63.6308L8.36051 63.1552C8.27571 63.09 8.17583 63.058 8.0726 63.058V63.658ZM8.01537 63.6454C7.99709 63.6336 7.98173 63.6183 7.97048 63.6017C7.95969 63.5858 7.95542 63.5728 7.95397 63.5674L8.53422 63.4147C8.50711 63.3116 8.44678 63.2094 8.33982 63.1407L8.01537 63.6454ZM7.95882 63.5838L9.20482 67.4128L9.77537 67.2272L8.52937 63.3982L7.95882 63.5838ZM9.4901 67.02H9.3886V67.62H9.4901V67.02ZM9.67523 67.4085L10.8547 63.59L10.2815 63.413L9.10196 67.2315L9.67523 67.4085ZM10.854 63.5925C10.8535 63.594 10.8504 63.603 10.8413 63.615C10.8319 63.6276 10.8191 63.6393 10.8042 63.6481L10.5 63.1309C10.3859 63.198 10.3169 63.3015 10.2822 63.4105L10.854 63.5925ZM10.7978 63.6518C10.7991 63.651 10.7978 63.6519 10.7942 63.6529C10.7905 63.6539 10.7861 63.6545 10.7816 63.6545V63.0545C10.6821 63.0545 10.5891 63.0813 10.5064 63.1273L10.7978 63.6518ZM10.7816 63.6545C10.7796 63.6545 10.7767 63.6542 10.7735 63.6534C10.7703 63.6525 10.7687 63.6516 10.7689 63.6518L11.0603 63.1273C10.9751 63.0799 10.8808 63.0545 10.7816 63.0545V63.6545ZM10.7689 63.6518C10.753 63.6429 10.7362 63.629 10.7226 63.6101C10.7095 63.5918 10.7043 63.5758 10.7026 63.568L11.2876 63.435C11.2591 63.3094 11.1845 63.1962 11.0603 63.1273L10.7689 63.6518ZM10.7085 63.59L11.888 67.4085L12.4612 67.2315L11.2817 63.413L10.7085 63.59ZM12.1746 67.02H12.0731V67.62H12.1746V67.02ZM12.3584 67.4128L13.6044 63.5838L13.0338 63.3982L11.7878 67.2272L12.3584 67.4128ZM13.6006 63.5947C13.6037 63.5862 13.5974 63.6091 13.5656 63.633L13.2056 63.153C13.1178 63.2189 13.0671 63.3072 13.0376 63.3873L13.6006 63.5947ZM13.5685 63.6308C13.5581 63.6388 13.5449 63.6462 13.5295 63.6514C13.5142 63.6565 13.5006 63.658 13.4906 63.658V63.058C13.3874 63.058 13.2875 63.09 13.2027 63.1552L13.5685 63.6308ZM13.4906 63.658C13.4981 63.658 13.4822 63.6595 13.4562 63.6465C13.426 63.6314 13.4006 63.6059 13.3856 63.5773L13.9176 63.2997C13.8215 63.1156 13.6412 63.058 13.4906 63.058V63.658ZM13.3904 63.5861C13.3878 63.5815 13.3823 63.5695 13.3804 63.5516C13.3785 63.5334 13.3812 63.518 13.3845 63.5081L13.9537 63.6979C14.0005 63.5574 13.9828 63.4147 13.9128 63.2909L13.3904 63.5861ZM13.3839 63.51L12.0399 67.633L12.6103 67.819L13.9543 63.696L13.3839 63.51ZM12.0391 67.6353C12.0381 67.6386 12.0451 67.6153 12.0749 67.5931C12.0889 67.5827 12.1031 67.5763 12.1149 67.5728C12.1261 67.5695 12.1328 67.5695 12.1326 67.5695V68.1695C12.2314 68.1695 12.3389 68.1447 12.4335 68.0742C12.5275 68.0041 12.5818 67.9091 12.6111 67.8167L12.0391 67.6353ZM12.1326 67.5695H12.1186V68.1695H12.1326V67.5695ZM12.1186 67.5695C12.1164 67.5695 12.1429 67.5695 12.1745 67.5931C12.2063 67.6168 12.2143 67.6427 12.214 67.6417L11.6382 67.8103C11.6659 67.905 11.72 68.0026 11.8159 68.0742C11.9117 68.1456 12.0204 68.1695 12.1186 68.1695V67.5695ZM12.2125 67.6368L11.012 63.7799L10.4392 63.9582L11.6397 67.8152L12.2125 67.6368ZM10.7256 64.169H10.8271V63.569H10.7256V64.169ZM10.5407 63.7799L9.34015 67.6368L9.91304 67.8152L11.1135 63.9582L10.5407 63.7799ZM9.33771 67.6451C9.33558 67.6527 9.33635 67.6459 9.34548 67.6322C9.35553 67.6171 9.37545 67.5944 9.40842 67.5768L9.69077 68.1062C9.82858 68.0327 9.88857 67.903 9.91549 67.8069L9.33771 67.6451ZM9.40842 67.5768C9.41914 67.5711 9.42663 67.5693 9.42829 67.5689C9.42977 67.5686 9.42635 67.5695 9.4166 67.5695V68.1695C9.5029 68.1695 9.59971 68.1548 9.69077 68.1062L9.40842 67.5768ZM18.9995 63.7255V63.4255H18.6995V63.7255H18.9995ZM18.9995 65.402H18.6995V65.702H18.9995V65.402ZM18.9995 65.7695V65.4695H18.6995V65.7695H18.9995ZM18.9995 67.502H18.6995V67.802H18.9995V67.502ZM18.8175 67.5695C18.802 67.5695 18.8454 67.5658 18.8906 67.611C18.9357 67.6562 18.932 67.6996 18.932 67.684H18.332C18.332 67.7921 18.3593 67.9282 18.4663 68.0353C18.5733 68.1423 18.7095 68.1695 18.8175 68.1695V67.5695ZM18.932 67.684V63.5435H18.332V67.684H18.932ZM18.932 63.5435C18.932 63.5279 18.9357 63.5713 18.8906 63.6165C18.8454 63.6617 18.802 63.658 18.8175 63.658V63.058C18.7095 63.058 18.5733 63.0852 18.4663 63.1922C18.3593 63.2993 18.332 63.4354 18.332 63.5435H18.932ZM18.8175 63.658H21.439V63.058H18.8175V63.658ZM21.439 63.658C21.4546 63.658 21.4112 63.6617 21.366 63.6165C21.3208 63.5713 21.3245 63.5279 21.3245 63.5435H21.9245C21.9245 63.4354 21.8973 63.2993 21.7903 63.1922C21.6833 63.0852 21.5471 63.058 21.439 63.058V63.658ZM21.3245 63.5435C21.3245 63.5565 21.3216 63.5114 21.3681 63.4659C21.4134 63.4214 21.4561 63.4255 21.439 63.4255V64.0255C21.5457 64.0255 21.6811 63.9993 21.7883 63.8941C21.8965 63.7879 21.9245 63.6519 21.9245 63.5435H21.3245ZM21.439 63.4255H18.9995V64.0255H21.439V63.4255ZM18.6995 63.7255V65.402H19.2995V63.7255H18.6995ZM18.9995 65.702H20.613V65.102H18.9995V65.702ZM20.613 65.702C20.6301 65.702 20.5874 65.7062 20.5421 65.6616C20.4956 65.6161 20.4985 65.571 20.4985 65.584H21.0985C21.0985 65.4756 21.0705 65.3396 20.9623 65.2334C20.8551 65.1282 20.7197 65.102 20.613 65.102V65.702ZM20.4985 65.584C20.4985 65.5996 20.4948 65.5562 20.54 65.511C20.5852 65.4658 20.6286 65.4695 20.613 65.4695V66.0695C20.7211 66.0695 20.8573 66.0423 20.9643 65.9353C21.0713 65.8282 21.0985 65.6921 21.0985 65.584H20.4985ZM20.613 65.4695H18.9995V66.0695H20.613V65.4695ZM18.6995 65.7695V67.502H19.2995V65.7695H18.6995ZM18.9995 67.802H21.439V67.202H18.9995V67.802ZM21.439 67.802C21.4561 67.802 21.4134 67.8062 21.3681 67.7616C21.3216 67.7161 21.3245 67.671 21.3245 67.684H21.9245C21.9245 67.5756 21.8965 67.4396 21.7883 67.3334C21.6811 67.2282 21.5457 67.202 21.439 67.202V67.802ZM21.3245 67.684C21.3245 67.6996 21.3208 67.6562 21.366 67.611C21.4112 67.5658 21.4546 67.5695 21.439 67.5695V68.1695C21.5471 68.1695 21.6833 68.1423 21.7903 68.0353C21.8973 67.9282 21.9245 67.7921 21.9245 67.684H21.3245ZM21.439 67.5695H18.8175V68.1695H21.439V67.5695ZM29.5454 63.6205L29.3332 63.8327L29.3361 63.8354L29.5454 63.6205ZM29.4579 65.3495L29.2955 65.0972L28.8122 65.4083L29.3437 65.6269L29.4579 65.3495ZM29.7624 67.565L29.5502 67.3529L29.7624 67.565ZM27.1234 67.502H26.8234V67.802H27.1234V67.502ZM29.5034 67.3025L29.7155 67.5146L29.5034 67.3025ZM29.5034 65.8045L29.2912 66.0166L29.2931 66.0185L29.5034 65.8045ZM27.1234 65.6085V65.3085H26.8234V65.6085H27.1234ZM27.1234 65.241H26.8234V65.541H27.1234V65.241ZM29.2899 65.08L29.0709 64.875L29.0707 64.8751L29.2899 65.08ZM29.2829 63.8795L29.0731 64.094L29.0755 64.0963L29.2829 63.8795ZM27.1234 63.7255V63.4255H26.8234V63.7255H27.1234ZM26.9414 67.5695C26.9258 67.5695 26.9692 67.5658 27.0144 67.611C27.0596 67.6562 27.0559 67.6996 27.0559 67.684H26.4559C26.4559 67.7921 26.4831 67.9282 26.5901 68.0353C26.6971 68.1423 26.8333 68.1695 26.9414 68.1695V67.5695ZM27.0559 67.684V63.5435H26.4559V67.684H27.0559ZM27.0559 63.5435C27.0559 63.5279 27.0596 63.5713 27.0144 63.6165C26.9692 63.6617 26.9258 63.658 26.9414 63.658V63.058C26.8333 63.058 26.6971 63.0852 26.5901 63.1922C26.4831 63.2993 26.4559 63.4354 26.4559 63.5435H27.0559ZM26.9414 63.658H28.7684V63.058H26.9414V63.658ZM28.7684 63.658C29.0631 63.658 29.2333 63.7327 29.3332 63.8326L29.7575 63.4084C29.5074 63.1583 29.1597 63.058 28.7684 63.058V63.658ZM29.3361 63.8354C29.4371 63.9338 29.5114 64.0986 29.5114 64.3835H30.1114C30.1114 63.9964 30.0084 63.6526 29.7547 63.4056L29.3361 63.8354ZM29.5114 64.3835V64.5725H30.1114V64.3835H29.5114ZM29.5114 64.5725C29.5114 64.872 29.4195 65.0175 29.2955 65.0972L29.6202 65.6018C29.9676 65.3782 30.1114 65.0057 30.1114 64.5725H29.5114ZM29.3437 65.6269C29.4893 65.6868 29.5886 65.7758 29.6556 65.8953C29.7254 66.0197 29.7704 66.196 29.7704 66.4415H30.3704C30.3704 66.127 30.3133 65.8413 30.1789 65.6017C30.0418 65.3573 29.8348 65.1802 29.572 65.0721L29.3437 65.6269ZM29.7704 66.4415V66.662H30.3704V66.4415H29.7704ZM29.7704 66.662C29.7704 67.0089 29.6812 67.2219 29.5502 67.3529L29.9745 67.7771C30.2542 67.4975 30.3704 67.1084 30.3704 66.662H29.7704ZM29.5502 67.3529C29.4225 67.4807 29.2104 67.5695 28.8594 67.5695V68.1695C29.3064 68.1695 29.6963 68.0554 29.9745 67.7771L29.5502 67.3529ZM28.8594 67.5695H26.9414V68.1695H28.8594V67.5695ZM27.1234 67.802H28.8594V67.202H27.1234V67.802ZM28.8594 67.802C29.1909 67.802 29.5012 67.729 29.7155 67.5146L29.2912 67.0904C29.2396 67.142 29.1205 67.202 28.8594 67.202V67.802ZM29.7155 67.5146C29.9295 67.3007 30.0029 66.992 30.0029 66.662H29.4029C29.4029 66.92 29.3433 67.0383 29.2912 67.0904L29.7155 67.5146ZM30.0029 66.662V66.4415H29.4029V66.662H30.0029ZM30.0029 66.4415C30.0029 66.1121 29.9297 65.8028 29.7136 65.5905L29.2931 66.0185C29.343 66.0675 29.4029 66.1829 29.4029 66.4415H30.0029ZM29.7155 65.5924C29.5023 65.3792 29.1906 65.3085 28.8594 65.3085V65.9085C29.1255 65.9085 29.2431 65.9685 29.2912 66.0166L29.7155 65.5924ZM28.8594 65.3085H27.1234V65.9085H28.8594V65.3085ZM26.8234 65.6085V67.502H27.4234V65.6085H26.8234ZM27.1234 65.541H28.8209V64.941H27.1234V65.541ZM28.8209 65.541C29.0788 65.541 29.3306 65.4757 29.509 65.2849L29.0707 64.8751C29.0484 64.899 28.9876 64.941 28.8209 64.941V65.541ZM29.5089 65.285C29.6851 65.0968 29.7439 64.8386 29.7439 64.5725H29.1439C29.1439 64.7637 29.1 64.8438 29.0709 64.875L29.5089 65.285ZM29.7439 64.5725V64.3835H29.1439V64.5725H29.7439ZM29.7439 64.3835C29.7439 64.1139 29.6831 63.8472 29.4902 63.6627L29.0755 64.0963C29.0973 64.1171 29.1439 64.1864 29.1439 64.3835H29.7439ZM29.4926 63.665C29.3054 63.4819 29.0384 63.4255 28.7684 63.4255V64.0255C28.9744 64.0255 29.0504 64.0717 29.0731 64.094L29.4926 63.665ZM28.7684 63.4255H27.1234V64.0255H28.7684V63.4255ZM26.8234 63.7255V65.241H27.4234V63.7255H26.8234ZM38.4362 63.757L38.2231 63.9682L38.2241 63.9691L38.4362 63.757ZM38.4362 67.4705L38.2241 67.2584L38.2231 67.2593L38.4362 67.4705ZM35.6642 67.502H35.3642V67.802H35.6642V67.502ZM37.9287 67.376L37.8081 67.1013L37.8068 67.1019L37.9287 67.376ZM38.3417 66.9665L38.6158 67.0883L38.6164 67.0871L38.3417 66.9665ZM38.3417 64.268L38.067 64.3886L38.0675 64.3898L38.3417 64.268ZM37.9287 63.855L37.804 64.1279L37.8081 64.1297L37.9287 63.855ZM35.6642 63.7255V63.4255H35.3642V63.7255H35.6642ZM35.4822 67.5695C35.4666 67.5695 35.51 67.5658 35.5552 67.611C35.6004 67.6562 35.5967 67.6996 35.5967 67.684H34.9967C34.9967 67.7921 35.0239 67.9282 35.1309 68.0353C35.238 68.1423 35.3741 68.1695 35.4822 68.1695V67.5695ZM35.5967 67.684V63.5435H34.9967V67.684H35.5967ZM35.5967 63.5435C35.5967 63.5279 35.6004 63.5713 35.5552 63.6165C35.51 63.6617 35.4666 63.658 35.4822 63.658V63.058C35.3741 63.058 35.238 63.0852 35.1309 63.1922C35.0239 63.2993 34.9967 63.4354 34.9967 63.5435H35.5967ZM35.4822 63.658H37.1692V63.058H35.4822V63.658ZM37.1692 63.658C37.7132 63.658 38.0402 63.7837 38.2231 63.9682L38.6493 63.5458C38.3048 63.1983 37.7872 63.058 37.1692 63.058V63.658ZM38.2241 63.9691C38.4097 64.1547 38.5352 64.4838 38.5352 65.0275H39.1352C39.1352 64.4092 38.9947 63.8913 38.6483 63.5449L38.2241 63.9691ZM38.5352 65.0275V66.2H39.1352V65.0275H38.5352ZM38.5352 66.2C38.5352 66.7437 38.4097 67.0728 38.2241 67.2584L38.6483 67.6826C38.9947 67.3362 39.1352 66.8183 39.1352 66.2H38.5352ZM38.2231 67.2593C38.0402 67.4438 37.7132 67.5695 37.1692 67.5695V68.1695C37.7872 68.1695 38.3048 68.0292 38.6493 67.6817L38.2231 67.2593ZM37.1692 67.5695H35.4822V68.1695H37.1692V67.5695ZM35.6642 67.802H37.1692V67.202H35.6642V67.802ZM37.1692 67.802C37.5083 67.802 37.8082 67.7578 38.0505 67.6502L37.8068 67.1019C37.6711 67.1622 37.4647 67.202 37.1692 67.202V67.802ZM38.0493 67.6507C38.3083 67.537 38.5011 67.3464 38.6158 67.0883L38.0675 66.8447C38.0142 66.9646 37.9318 67.047 37.8081 67.1013L38.0493 67.6507ZM38.6164 67.0871C38.7235 66.843 38.7677 66.5414 38.7677 66.2H38.1677C38.1677 66.498 38.1278 66.7073 38.067 66.8459L38.6164 67.0871ZM38.7677 66.2V65.0275H38.1677V66.2H38.7677ZM38.7677 65.0275C38.7677 64.6884 38.7235 64.3885 38.6158 64.1462L38.0675 64.3898C38.1279 64.5255 38.1677 64.7319 38.1677 65.0275H38.7677ZM38.6164 64.1474C38.5021 63.8872 38.3095 63.6945 38.0493 63.5803L37.8081 64.1297C37.9306 64.1835 38.0132 64.2661 38.067 64.3886L38.6164 64.1474ZM38.0533 63.5821C37.8101 63.471 37.509 63.4255 37.1692 63.4255V64.0255C37.464 64.0255 37.6693 64.0663 37.804 64.1279L38.0533 63.5821ZM37.1692 63.4255H35.6642V64.0255H37.1692V63.4255ZM35.3642 63.7255V67.502H35.9642V63.7255H35.3642ZM44.6152 63.7255V63.4255H44.3152V63.7255H44.6152ZM44.6152 65.402H44.3152V65.702H44.6152V65.402ZM44.6152 65.7695V65.4695H44.3152V65.7695H44.6152ZM44.6152 67.502H44.3152V67.802H44.6152V67.502ZM44.4332 67.5695C44.4176 67.5695 44.461 67.5658 44.5062 67.611C44.5514 67.6562 44.5477 67.6996 44.5477 67.684H43.9477C43.9477 67.7921 43.9749 67.9282 44.0819 68.0353C44.1889 68.1423 44.3251 68.1695 44.4332 68.1695V67.5695ZM44.5477 67.684V63.5435H43.9477V67.684H44.5477ZM44.5477 63.5435C44.5477 63.5279 44.5514 63.5713 44.5062 63.6165C44.461 63.6617 44.4176 63.658 44.4332 63.658V63.058C44.3251 63.058 44.1889 63.0852 44.0819 63.1922C43.9749 63.2993 43.9477 63.4354 43.9477 63.5435H44.5477ZM44.4332 63.658H47.0547V63.058H44.4332V63.658ZM47.0547 63.658C47.0703 63.658 47.0268 63.6617 46.9817 63.6165C46.9365 63.5713 46.9402 63.5279 46.9402 63.5435H47.5402C47.5402 63.4354 47.5129 63.2993 47.4059 63.1922C47.2989 63.0852 47.1627 63.058 47.0547 63.058V63.658ZM46.9402 63.5435C46.9402 63.5565 46.9373 63.5114 46.9837 63.4659C47.0291 63.4214 47.0717 63.4255 47.0547 63.4255V64.0255C47.1613 64.0255 47.2967 63.9993 47.4039 63.8941C47.5121 63.7879 47.5402 63.6519 47.5402 63.5435H46.9402ZM47.0547 63.4255H44.6152V64.0255H47.0547V63.4255ZM44.3152 63.7255V65.402H44.9152V63.7255H44.3152ZM44.6152 65.702H46.2287V65.102H44.6152V65.702ZM46.2287 65.702C46.2457 65.702 46.2031 65.7062 46.1577 65.6616C46.1113 65.6161 46.1142 65.571 46.1142 65.584H46.7142C46.7142 65.4756 46.6861 65.3396 46.5779 65.2334C46.4707 65.1282 46.3353 65.102 46.2287 65.102V65.702ZM46.1142 65.584C46.1142 65.5996 46.1105 65.5562 46.1557 65.511C46.2008 65.4658 46.2443 65.4695 46.2287 65.4695V66.0695C46.3367 66.0695 46.4729 66.0423 46.5799 65.9353C46.6869 65.8282 46.7142 65.6921 46.7142 65.584H46.1142ZM46.2287 65.4695H44.6152V66.0695H46.2287V65.4695ZM44.3152 65.7695V67.502H44.9152V65.7695H44.3152ZM44.6152 67.802H47.0547V67.202H44.6152V67.802ZM47.0547 67.802C47.0717 67.802 47.0291 67.8062 46.9837 67.7616C46.9373 67.7161 46.9402 67.671 46.9402 67.684H47.5402C47.5402 67.5756 47.5121 67.4396 47.4039 67.3334C47.2967 67.2282 47.1613 67.202 47.0547 67.202V67.802ZM46.9402 67.684C46.9402 67.6996 46.9365 67.6562 46.9817 67.611C47.0268 67.5658 47.0703 67.5695 47.0547 67.5695V68.1695C47.1627 68.1695 47.2989 68.1423 47.4059 68.0353C47.5129 67.9282 47.5402 67.7921 47.5402 67.684H46.9402ZM47.0547 67.5695H44.4332V68.1695H47.0547V67.5695ZM53.649 67.7435L53.926 67.6281L53.9235 67.6226L53.649 67.7435ZM51.8325 63.6205L52.107 63.4995L52.1062 63.4978L51.8325 63.6205ZM51.8325 63.4525L51.5908 63.2744L51.5849 63.2831L51.8325 63.4525ZM51.9655 63.3685L52.0267 63.6624L52.0366 63.66L51.9655 63.3685ZM52.165 63.4735L51.8863 63.585L51.8905 63.5945L52.165 63.4735ZM53.915 67.4425V67.7425H54.3751L54.1895 67.3215L53.915 67.4425ZM53.7855 67.4425L53.5107 67.3221L53.3265 67.7425H53.7855V67.4425ZM55.525 63.4735L55.7999 63.594L55.8035 63.5849L55.525 63.4735ZM55.728 63.3685L55.6584 63.6606L55.6713 63.6631L55.728 63.3685ZM55.861 63.4525L55.6073 63.6127V63.6127L55.861 63.4525ZM55.861 63.6205L56.1354 63.7419L56.1382 63.7352L55.861 63.6205ZM54.0375 67.7435L53.7631 67.6221L53.7606 67.6281L54.0375 67.7435ZM53.8205 67.5695C53.8368 67.5695 53.8668 67.575 53.8957 67.5962C53.9219 67.6155 53.9283 67.6338 53.9259 67.6281L53.3721 67.8589C53.4047 67.9373 53.4571 68.0185 53.5405 68.0798C53.6266 68.143 53.7249 68.1695 53.8205 68.1695V67.5695ZM53.9235 67.6226L52.107 63.4996L51.558 63.7415L53.3745 67.8645L53.9235 67.6226ZM52.1062 63.4978C52.103 63.4906 52.1097 63.5021 52.1097 63.5278C52.1097 63.5575 52.1006 63.592 52.0801 63.6219L51.5849 63.2831C51.4743 63.4447 51.5038 63.6206 51.5587 63.7432L52.1062 63.4978ZM52.074 63.6305C52.0693 63.6368 52.0614 63.645 52.0504 63.6519C52.0396 63.6587 52.0306 63.6614 52.0267 63.6622L51.9043 63.0748C51.7791 63.1009 51.6693 63.1683 51.591 63.2745L52.074 63.6305ZM52.0366 63.66C52.0358 63.6601 51.9968 63.6687 51.9474 63.6427C51.8989 63.6172 51.8853 63.5819 51.8865 63.5849L52.4435 63.3621C52.4074 63.2717 52.3418 63.1723 52.2268 63.1118C52.1109 63.0508 51.9908 63.0535 51.8944 63.0771L52.0366 63.66ZM51.8905 63.5945L53.6405 67.5635L54.1895 67.3215L52.4395 63.3525L51.8905 63.5945ZM53.915 67.1425H53.7855V67.7425H53.915V67.1425ZM54.0603 67.5629L55.7998 63.5939L55.2502 63.3531L53.5107 67.3221L54.0603 67.5629ZM55.8035 63.5849C55.8041 63.5835 55.7898 63.6188 55.7416 63.6437C55.6934 63.6686 55.6566 63.6599 55.6585 63.6603L55.7975 63.0767C55.7014 63.0538 55.5817 63.0509 55.4659 63.1108C55.35 63.1708 55.2832 63.2702 55.2465 63.3621L55.8035 63.5849ZM55.6713 63.6631C55.6713 63.6631 55.6611 63.6611 55.6465 63.6519C55.631 63.6421 55.6172 63.6282 55.6073 63.6127L56.1146 63.2923C56.0345 63.1654 55.911 63.0982 55.7846 63.0739L55.6713 63.6631ZM55.6073 63.6127C55.589 63.5836 55.582 63.5524 55.582 63.5278C55.582 63.5063 55.5871 63.4977 55.5838 63.5058L56.1382 63.7352C56.1875 63.616 56.2135 63.4488 56.1146 63.2923L55.6073 63.6127ZM55.5866 63.4992L53.7631 67.6222L54.3119 67.8649L56.1354 63.7419L55.5866 63.4992ZM53.7606 67.6281C53.7594 67.6309 53.7669 67.6117 53.7936 67.5929C53.822 67.5729 53.8489 67.5695 53.859 67.5695V68.1695C53.9531 68.1695 54.0518 68.1451 54.1396 68.0831C54.2258 68.0223 54.2806 67.9401 54.3144 67.8589L53.7606 67.6281ZM53.859 67.5695H53.8205V68.1695H53.859V67.5695ZM61.1978 63.7255V63.4255H60.8978V63.7255H61.1978ZM61.1978 65.402H60.8978V65.702H61.1978V65.402ZM61.1978 65.7695V65.4695H60.8978V65.7695H61.1978ZM61.1978 67.502H60.8978V67.802H61.1978V67.502ZM61.0158 67.5695C61.0002 67.5695 61.0436 67.5658 61.0888 67.611C61.134 67.6562 61.1303 67.6996 61.1303 67.684H60.5303C60.5303 67.7921 60.5575 67.9282 60.6645 68.0353C60.7715 68.1423 60.9077 68.1695 61.0158 68.1695V67.5695ZM61.1303 67.684V63.5435H60.5303V67.684H61.1303ZM61.1303 63.5435C61.1303 63.5279 61.134 63.5713 61.0888 63.6165C61.0436 63.6617 61.0002 63.658 61.0158 63.658V63.058C60.9077 63.058 60.7715 63.0852 60.6645 63.1922C60.5575 63.2993 60.5303 63.4354 60.5303 63.5435H61.1303ZM61.0158 63.658H63.6373V63.058H61.0158V63.658ZM63.6373 63.658C63.6529 63.658 63.6095 63.6617 63.5643 63.6165C63.5191 63.5713 63.5228 63.5279 63.5228 63.5435H64.1228C64.1228 63.4354 64.0956 63.2993 63.9885 63.1922C63.8815 63.0852 63.7454 63.058 63.6373 63.058V63.658ZM63.5228 63.5435C63.5228 63.5565 63.5199 63.5114 63.5663 63.4659C63.6117 63.4214 63.6543 63.4255 63.6373 63.4255V64.0255C63.7439 64.0255 63.8793 63.9993 63.9865 63.8941C64.0948 63.7879 64.1228 63.6519 64.1228 63.5435H63.5228ZM63.6373 63.4255H61.1978V64.0255H63.6373V63.4255ZM60.8978 63.7255V65.402H61.4978V63.7255H60.8978ZM61.1978 65.702H62.8113V65.102H61.1978V65.702ZM62.8113 65.702C62.8283 65.702 62.7857 65.7062 62.7403 65.6616C62.6939 65.6161 62.6968 65.571 62.6968 65.584H63.2968C63.2968 65.4756 63.2688 65.3396 63.1605 65.2334C63.0533 65.1282 62.9179 65.102 62.8113 65.102V65.702ZM62.6968 65.584C62.6968 65.5996 62.6931 65.5562 62.7383 65.511C62.7835 65.4658 62.8269 65.4695 62.8113 65.4695V66.0695C62.9194 66.0695 63.0555 66.0423 63.1625 65.9353C63.2696 65.8282 63.2968 65.6921 63.2968 65.584H62.6968ZM62.8113 65.4695H61.1978V66.0695H62.8113V65.4695ZM60.8978 65.7695V67.502H61.4978V65.7695H60.8978ZM61.1978 67.802H63.6373V67.202H61.1978V67.802ZM63.6373 67.802C63.6543 67.802 63.6117 67.8062 63.5663 67.7616C63.5199 67.7161 63.5228 67.671 63.5228 67.684H64.1228C64.1228 67.5756 64.0948 67.4396 63.9865 67.3334C63.8793 67.2282 63.7439 67.202 63.6373 67.202V67.802ZM63.5228 67.684C63.5228 67.6996 63.5191 67.6562 63.5643 67.611C63.6095 67.5658 63.6529 67.5695 63.6373 67.5695V68.1695C63.7454 68.1695 63.8815 68.1423 63.9885 68.0353C64.0956 67.9282 64.1228 67.7921 64.1228 67.684H63.5228ZM63.6373 67.5695H61.0158V68.1695H63.6373V67.5695ZM69.3216 67.502H69.0216V67.802H69.3216V67.502ZM69.1396 67.5695C69.124 67.5695 69.1674 67.5658 69.2126 67.611C69.2578 67.6562 69.2541 67.6996 69.2541 67.684H68.6541C68.6541 67.7921 68.6813 67.9282 68.7884 68.0353C68.8954 68.1423 69.0315 68.1695 69.1396 68.1695V67.5695ZM69.2541 67.684V63.5435H68.6541V67.684H69.2541ZM69.2541 63.5435C69.2541 63.5279 69.2578 63.5713 69.2126 63.6165C69.1674 63.6617 69.124 63.658 69.1396 63.658V63.058C69.0315 63.058 68.8954 63.0852 68.7884 63.1922C68.6813 63.2993 68.6541 63.4354 68.6541 63.5435H69.2541ZM69.1396 63.658C69.1526 63.658 69.1075 63.6609 69.062 63.6145C69.0174 63.5691 69.0216 63.5265 69.0216 63.5435H69.6216C69.6216 63.4369 69.5954 63.3015 69.4902 63.1943C69.384 63.086 69.248 63.058 69.1396 63.058V63.658ZM69.0216 63.5435V67.502H69.6216V63.5435H69.0216ZM69.3216 67.802H71.4496V67.202H69.3216V67.802ZM71.4496 67.802C71.4666 67.802 71.424 67.8062 71.3786 67.7616C71.3322 67.7161 71.3351 67.671 71.3351 67.684H71.9351C71.9351 67.5756 71.9071 67.4396 71.7988 67.3334C71.6916 67.2282 71.5563 67.202 71.4496 67.202V67.802ZM71.3351 67.684C71.3351 67.6996 71.3314 67.6562 71.3766 67.611C71.4218 67.5658 71.4652 67.5695 71.4496 67.5695V68.1695C71.5577 68.1695 71.6938 68.1423 71.8009 68.0353C71.9079 67.9282 71.9351 67.7921 71.9351 67.684H71.3351ZM71.4496 67.5695H69.1396V68.1695H71.4496V67.5695ZM76.7729 67.5195L76.985 67.3074L76.7729 67.5195ZM76.7729 63.701L76.984 63.9142L76.985 63.9131L76.7729 63.701ZM77.8754 63.358L77.8726 63.658H77.8754V63.358ZM79.8284 63.708L79.6152 63.9191L79.6163 63.9201L79.8284 63.708ZM79.8284 67.5195L79.6163 67.3074L79.6152 67.3084L79.8284 67.5195ZM79.3629 67.397L79.2418 67.1225L79.3629 67.397ZM79.7059 67.054L79.9804 67.1751L79.7059 67.054ZM79.7059 64.177L79.9804 64.0559L79.7059 64.177ZM79.3629 63.834L79.2384 64.107L79.2418 64.1085L79.3629 63.834ZM77.8754 63.7255L77.8728 64.0255H77.8754V63.7255ZM77.2349 63.827L77.3541 64.1023L77.356 64.1015L77.2349 63.827ZM76.8954 64.17L77.1699 64.2911L77.1705 64.2896L76.8954 64.17ZM76.8954 67.054L76.6209 67.1751L76.8954 67.054ZM77.2384 67.397L77.1173 67.6715L77.2384 67.397ZM77.8824 67.5695C77.414 67.5695 77.1383 67.4606 76.985 67.3074L76.5608 67.7316C76.8742 68.0451 77.3381 68.1695 77.8824 68.1695V67.5695ZM76.985 67.3074C76.8318 67.1541 76.7229 66.8784 76.7229 66.41H76.1229C76.1229 66.9543 76.2473 67.4182 76.5608 67.7316L76.985 67.3074ZM76.7229 66.41V64.814H76.1229V66.41H76.7229ZM76.7229 64.814C76.7229 64.3397 76.8324 64.0643 76.984 63.9142L76.5618 63.4878C76.2468 63.7997 76.1229 64.2664 76.1229 64.814H76.7229ZM76.985 63.9131C77.1377 63.7605 77.4102 63.6537 77.8726 63.658L77.8782 63.058C77.3373 63.053 76.8748 63.1748 76.5608 63.4889L76.985 63.9131ZM77.8754 63.658H78.7224V63.058H77.8754V63.658ZM78.7224 63.658C79.1911 63.658 79.4647 63.767 79.6152 63.9191L80.0416 63.4969C79.7301 63.1823 79.2663 63.058 78.7224 63.058V63.658ZM79.6163 63.9201C79.7695 64.0734 79.8784 64.3491 79.8784 64.8175H80.4784C80.4784 64.2732 80.354 63.8093 80.0405 63.4959L79.6163 63.9201ZM79.8784 64.8175V66.41H80.4784V64.8175H79.8784ZM79.8784 66.41C79.8784 66.8784 79.7695 67.1541 79.6163 67.3074L80.0405 67.7316C80.354 67.4182 80.4784 66.9543 80.4784 66.41H79.8784ZM79.6152 67.3084C79.4647 67.4605 79.1911 67.5695 78.7224 67.5695V68.1695C79.2663 68.1695 79.7301 68.0452 80.0416 67.7306L79.6152 67.3084ZM78.7224 67.5695H77.8824V68.1695H78.7224V67.5695ZM77.8824 67.802H78.7224V67.202H77.8824V67.802ZM78.7224 67.802C79.0119 67.802 79.2721 67.765 79.484 67.6715L79.2418 67.1225C79.1364 67.169 78.9695 67.202 78.7224 67.202V67.802ZM79.484 67.6715C79.7111 67.5713 79.8802 67.4022 79.9804 67.1751L79.4314 66.9329C79.3916 67.0231 79.332 67.0827 79.2418 67.1225L79.484 67.6715ZM79.9804 67.1751C80.074 66.9629 80.1109 66.7015 80.1109 66.41H79.5109C79.5109 66.6599 79.4778 66.8278 79.4314 66.9329L79.9804 67.1751ZM80.1109 66.41V64.8175H79.5109V66.41H80.1109ZM80.1109 64.8175C80.1109 64.528 80.0739 64.2678 79.9804 64.0559L79.4314 64.2981C79.4779 64.4035 79.5109 64.5704 79.5109 64.8175H80.1109ZM79.9804 64.0559C79.8802 63.8288 79.7111 63.6597 79.484 63.5595L79.2418 64.1085C79.332 64.1483 79.3916 64.2079 79.4314 64.2981L79.9804 64.0559ZM79.4873 63.561C79.2743 63.4639 79.0128 63.4255 78.7224 63.4255V64.0255C78.9686 64.0255 79.1342 64.0594 79.2384 64.107L79.4873 63.561ZM78.7224 63.4255H77.8754V64.0255H78.7224V63.4255ZM77.878 63.4255C77.588 63.423 77.3269 63.4585 77.1138 63.5525L77.356 64.1015C77.4603 64.0555 77.6261 64.0234 77.8728 64.0255L77.878 63.4255ZM77.1157 63.5517C76.8872 63.6506 76.7196 63.8219 76.6203 64.0504L77.1705 64.2896C77.2112 64.1961 77.2699 64.1387 77.3541 64.1023L77.1157 63.5517ZM76.6209 64.0489C76.5273 64.2611 76.4904 64.5226 76.4904 64.814H77.0904C77.0904 64.5641 77.1235 64.3963 77.1699 64.2911L76.6209 64.0489ZM76.4904 64.814V66.41H77.0904V64.814H76.4904ZM76.4904 66.41C76.4904 66.7015 76.5273 66.9629 76.6209 67.1751L77.1699 66.9329C77.1235 66.8278 77.0904 66.6599 77.0904 66.41H76.4904ZM76.6209 67.1751C76.7211 67.4022 76.8902 67.5713 77.1173 67.6715L77.3595 67.1225C77.2693 67.0827 77.2097 67.0231 77.1699 66.9329L76.6209 67.1751ZM77.1173 67.6715C77.3295 67.7651 77.5909 67.802 77.8824 67.802V67.202C77.6325 67.202 77.4646 67.1689 77.3595 67.1225L77.1173 67.6715ZM88.3179 63.666L88.1046 63.8769L88.1058 63.8781L88.3179 63.666ZM88.3179 65.6855L88.1058 65.4734L88.1046 65.4746L88.3179 65.6855ZM85.9589 65.9935V65.6935H85.6589V65.9935H85.9589ZM85.9589 65.626H85.6589V65.926H85.9589V65.626ZM88.0554 63.9285L87.8414 64.1388L87.8451 64.1425L88.0554 63.9285ZM85.9589 63.7255V63.4255H85.6589V63.7255H85.9589ZM85.7769 67.5695C85.7613 67.5695 85.8047 67.5658 85.8499 67.611C85.8951 67.6562 85.8914 67.6996 85.8914 67.684H85.2914C85.2914 67.7921 85.3186 67.9282 85.4257 68.0353C85.5327 68.1423 85.6688 68.1695 85.7769 68.1695V67.5695ZM85.8914 67.684V63.5435H85.2914V67.684H85.8914ZM85.8914 63.5435C85.8914 63.5279 85.8951 63.5713 85.8499 63.6165C85.8047 63.6617 85.7613 63.658 85.7769 63.658V63.058C85.6688 63.058 85.5327 63.0852 85.4257 63.1922C85.3186 63.2993 85.2914 63.4354 85.2914 63.5435H85.8914ZM85.7769 63.658H87.4149V63.058H85.7769V63.658ZM87.4149 63.658C87.765 63.658 87.9767 63.7475 88.1046 63.8769L88.5312 63.4551C88.2532 63.1738 87.8628 63.058 87.4149 63.058V63.658ZM88.1058 63.8781C88.2365 64.0088 88.3259 64.2227 88.3259 64.5725H88.9259C88.9259 64.1244 88.81 63.7338 88.53 63.4539L88.1058 63.8781ZM88.3259 64.5725V64.7825H88.9259V64.5725H88.3259ZM88.3259 64.7825C88.3259 65.1294 88.2368 65.3424 88.1058 65.4734L88.53 65.8976C88.8097 65.618 88.9259 65.2289 88.9259 64.7825H88.3259ZM88.1046 65.4746C87.9767 65.604 87.765 65.6935 87.4149 65.6935V66.2935C87.8628 66.2935 88.2532 66.1777 88.5312 65.8964L88.1046 65.4746ZM87.4149 65.6935H85.9589V66.2935H87.4149V65.6935ZM85.6589 65.9935V67.684H86.2589V65.9935H85.6589ZM85.6589 67.684C85.6589 67.701 85.6548 67.6584 85.6993 67.613C85.7448 67.5666 85.7899 67.5695 85.7769 67.5695V68.1695C85.8853 68.1695 86.0213 68.1415 86.1276 68.0332C86.2327 67.926 86.2589 67.7907 86.2589 67.684H85.6589ZM85.9589 65.926H87.4149V65.326H85.9589V65.926ZM87.4149 65.926C87.7449 65.926 88.0536 65.8526 88.2675 65.6386L87.8433 65.2144C87.7912 65.2664 87.6729 65.326 87.4149 65.326V65.926ZM88.2675 65.6386C88.483 65.4232 88.5584 65.1143 88.5584 64.7825H87.9584C87.9584 65.0387 87.8985 65.1592 87.8433 65.2144L88.2675 65.6386ZM88.5584 64.7825V64.5725H87.9584V64.7825H88.5584ZM88.5584 64.5725C88.5584 64.2398 88.4836 63.9287 88.2657 63.7145L87.8451 64.1425C87.8979 64.1943 87.9584 64.3126 87.9584 64.5725H88.5584ZM88.2694 63.7182C88.0556 63.5007 87.7461 63.4255 87.4149 63.4255V64.0255C87.6717 64.0255 87.7893 64.0857 87.8414 64.1388L88.2694 63.7182ZM87.4149 63.4255H85.9589V64.0255H87.4149V63.4255ZM85.6589 63.7255V65.626H86.2589V63.7255H85.6589ZM94.0827 63.7255V63.4255H93.7827V63.7255H94.0827ZM94.0827 65.402H93.7827V65.702H94.0827V65.402ZM94.0827 65.7695V65.4695H93.7827V65.7695H94.0827ZM94.0827 67.502H93.7827V67.802H94.0827V67.502ZM93.9007 67.5695C93.8852 67.5695 93.9286 67.5658 93.9738 67.611C94.0189 67.6562 94.0152 67.6996 94.0152 67.684H93.4152C93.4152 67.7921 93.4425 67.9282 93.5495 68.0353C93.6565 68.1423 93.7927 68.1695 93.9007 68.1695V67.5695ZM94.0152 67.684V63.5435H93.4152V67.684H94.0152ZM94.0152 63.5435C94.0152 63.5279 94.0189 63.5713 93.9738 63.6165C93.9286 63.6617 93.8852 63.658 93.9007 63.658V63.058C93.7927 63.058 93.6565 63.0852 93.5495 63.1922C93.4425 63.2993 93.4152 63.4354 93.4152 63.5435H94.0152ZM93.9007 63.658H96.5222V63.058H93.9007V63.658ZM96.5222 63.658C96.5378 63.658 96.4944 63.6617 96.4492 63.6165C96.4041 63.5713 96.4077 63.5279 96.4077 63.5435H97.0077C97.0077 63.4354 96.9805 63.2993 96.8735 63.1922C96.7665 63.0852 96.6303 63.058 96.5222 63.058V63.658ZM96.4077 63.5435C96.4077 63.5565 96.4048 63.5114 96.4513 63.4659C96.4966 63.4214 96.5393 63.4255 96.5222 63.4255V64.0255C96.6289 64.0255 96.7643 63.9993 96.8715 63.8941C96.9797 63.7879 97.0077 63.6519 97.0077 63.5435H96.4077ZM96.5222 63.4255H94.0827V64.0255H96.5222V63.4255ZM93.7827 63.7255V65.402H94.3827V63.7255H93.7827ZM94.0827 65.702H95.6962V65.102H94.0827V65.702ZM95.6962 65.702C95.7133 65.702 95.6706 65.7062 95.6253 65.6616C95.5788 65.6161 95.5817 65.571 95.5817 65.584H96.1817C96.1817 65.4756 96.1537 65.3396 96.0455 65.2334C95.9383 65.1282 95.8029 65.102 95.6962 65.102V65.702ZM95.5817 65.584C95.5817 65.5996 95.578 65.5562 95.6232 65.511C95.6684 65.4658 95.7118 65.4695 95.6962 65.4695V66.0695C95.8043 66.0695 95.9405 66.0423 96.0475 65.9353C96.1545 65.8282 96.1817 65.6921 96.1817 65.584H95.5817ZM95.6962 65.4695H94.0827V66.0695H95.6962V65.4695ZM93.7827 65.7695V67.502H94.3827V65.7695H93.7827ZM94.0827 67.802H96.5222V67.202H94.0827V67.802ZM96.5222 67.802C96.5393 67.802 96.4966 67.8062 96.4513 67.7616C96.4048 67.7161 96.4077 67.671 96.4077 67.684H97.0077C97.0077 67.5756 96.9797 67.4396 96.8715 67.3334C96.7643 67.2282 96.6289 67.202 96.5222 67.202V67.802ZM96.4077 67.684C96.4077 67.6996 96.4041 67.6562 96.4492 67.611C96.4944 67.5658 96.5378 67.5695 96.5222 67.5695V68.1695C96.6303 68.1695 96.7665 68.1423 96.8735 68.0353C96.9805 67.9282 97.0077 67.7921 97.0077 67.684H96.4077ZM96.5222 67.5695H93.9007V68.1695H96.5222V67.5695ZM104.891 67.8765L104.741 67.6167L104.738 67.6182L104.891 67.8765ZM104.751 67.908L104.686 68.2009L104.751 67.908ZM104.639 67.8205L104.385 67.9802L104.389 67.9869L104.639 67.8205ZM103.491 65.9935L103.745 65.8339L103.657 65.6935H103.491V65.9935ZM102.207 65.9935V65.6935H101.907V65.9935H102.207ZM104.566 63.666L104.352 63.8769L104.353 63.8781L104.566 63.666ZM104.632 65.612L104.866 65.7997L104.632 65.612ZM103.918 65.9795L103.876 65.6824L103.418 65.7469L103.664 66.139L103.918 65.9795ZM104.951 67.6245L105.207 67.4685L105.205 67.465L104.951 67.6245ZM102.207 65.626H101.907V65.926H102.207V65.626ZM104.303 63.9285L104.089 64.1388L104.093 64.1425L104.303 63.9285ZM102.207 63.7255V63.4255H101.907V63.7255H102.207ZM104.738 67.6182C104.727 67.6249 104.759 67.6025 104.816 67.6152L104.686 68.2009C104.827 68.2322 104.952 68.1888 105.044 68.1348L104.738 67.6182ZM104.816 67.6152C104.843 67.6211 104.863 67.6326 104.876 67.6427C104.888 67.652 104.891 67.6582 104.889 67.6541L104.389 67.9869C104.449 68.0761 104.544 68.1694 104.686 68.2009L104.816 67.6152ZM104.893 67.6609L103.745 65.8339L103.237 66.1531L104.385 67.9801L104.893 67.6609ZM103.491 65.6935H102.207V66.2935H103.491V65.6935ZM101.907 65.9935V67.684H102.507V65.9935H101.907ZM101.907 67.684C101.907 67.701 101.902 67.6584 101.947 67.613C101.992 67.5666 102.038 67.5695 102.025 67.5695V68.1695C102.133 68.1695 102.269 68.1415 102.375 68.0332C102.48 67.926 102.507 67.7907 102.507 67.684H101.907ZM102.025 67.5695C102.009 67.5695 102.052 67.5658 102.098 67.611C102.143 67.6562 102.139 67.6996 102.139 67.684H101.539C101.539 67.7921 101.566 67.9282 101.673 68.0353C101.78 68.1423 101.916 68.1695 102.025 68.1695V67.5695ZM102.139 67.684V63.5435H101.539V67.684H102.139ZM102.139 63.5435C102.139 63.5279 102.143 63.5713 102.098 63.6165C102.052 63.6617 102.009 63.658 102.025 63.658V63.058C101.916 63.058 101.78 63.0852 101.673 63.1922C101.566 63.2993 101.539 63.4354 101.539 63.5435H102.139ZM102.025 63.658H103.663V63.058H102.025V63.658ZM103.663 63.658C104.013 63.658 104.224 63.7475 104.352 63.8769L104.779 63.4551C104.501 63.1738 104.11 63.058 103.663 63.058V63.658ZM104.353 63.8781C104.484 64.0088 104.574 64.2227 104.574 64.5725H105.174C105.174 64.1244 105.058 63.7338 104.778 63.4539L104.353 63.8781ZM104.574 64.5725V64.7825H105.174V64.5725H104.574ZM104.574 64.7825C104.574 65.0916 104.503 65.2935 104.398 65.4243L104.866 65.7997C105.083 65.5291 105.174 65.1781 105.174 64.7825H104.574ZM104.398 65.4243C104.296 65.552 104.134 65.6461 103.876 65.6824L103.96 66.2766C104.332 66.2242 104.647 66.0733 104.866 65.7997L104.398 65.4243ZM103.664 66.139L104.696 67.784L105.205 67.465L104.172 65.82L103.664 66.139ZM104.694 67.7805C104.705 67.7974 104.678 67.7628 104.693 67.6991C104.708 67.6325 104.752 67.6106 104.741 67.6167L105.041 68.1363C105.136 68.0817 105.241 67.9875 105.277 67.8369C105.312 67.6892 105.262 67.5589 105.207 67.4685L104.694 67.7805ZM102.207 65.926H103.663V65.326H102.207V65.926ZM103.663 65.926C103.993 65.926 104.301 65.8526 104.515 65.6386L104.091 65.2144C104.039 65.2664 103.921 65.326 103.663 65.326V65.926ZM104.515 65.6386C104.731 65.4232 104.806 65.1143 104.806 64.7825H104.206C104.206 65.0387 104.146 65.1592 104.091 65.2144L104.515 65.6386ZM104.806 64.7825V64.5725H104.206V64.7825H104.806ZM104.806 64.5725C104.806 64.2398 104.731 63.9287 104.513 63.7145L104.093 64.1425C104.146 64.1943 104.206 64.3126 104.206 64.5725H104.806ZM104.517 63.7182C104.303 63.5007 103.994 63.4255 103.663 63.4255V64.0255C103.919 64.0255 104.037 64.0857 104.089 64.1388L104.517 63.7182ZM103.663 63.4255H102.207V64.0255H103.663V63.4255ZM101.907 63.7255V65.626H102.507V63.7255H101.907ZM119.285 63.757L119.072 63.9682L119.073 63.9691L119.285 63.757ZM119.285 67.4705L119.073 67.2584L119.072 67.2593L119.285 67.4705ZM116.513 67.502H116.213V67.802H116.513V67.502ZM118.777 67.376L118.657 67.1013L118.655 67.1019L118.777 67.376ZM119.19 66.9665L119.464 67.0883L119.465 67.0871L119.19 66.9665ZM119.19 64.268L118.916 64.3886L118.916 64.3898L119.19 64.268ZM118.777 63.855L118.653 64.1279L118.657 64.1297L118.777 63.855ZM116.513 63.7255V63.4255H116.213V63.7255H116.513ZM116.331 67.5695C116.315 67.5695 116.359 67.5658 116.404 67.611C116.449 67.6562 116.445 67.6996 116.445 67.684H115.845C115.845 67.7921 115.873 67.9282 115.98 68.0353C116.087 68.1423 116.223 68.1695 116.331 68.1695V67.5695ZM116.445 67.684V63.5435H115.845V67.684H116.445ZM116.445 63.5435C116.445 63.5279 116.449 63.5713 116.404 63.6165C116.359 63.6617 116.315 63.658 116.331 63.658V63.058C116.223 63.058 116.087 63.0852 115.98 63.1922C115.873 63.2993 115.845 63.4354 115.845 63.5435H116.445ZM116.331 63.658H118.018V63.058H116.331V63.658ZM118.018 63.658C118.562 63.658 118.889 63.7837 119.072 63.9682L119.498 63.5458C119.153 63.1983 118.636 63.058 118.018 63.058V63.658ZM119.073 63.9691C119.258 64.1547 119.384 64.4838 119.384 65.0275H119.984C119.984 64.4092 119.843 63.8913 119.497 63.5449L119.073 63.9691ZM119.384 65.0275V66.2H119.984V65.0275H119.384ZM119.384 66.2C119.384 66.7437 119.258 67.0728 119.073 67.2584L119.497 67.6826C119.843 67.3362 119.984 66.8183 119.984 66.2H119.384ZM119.072 67.2593C118.889 67.4438 118.562 67.5695 118.018 67.5695V68.1695C118.636 68.1695 119.153 68.0292 119.498 67.6817L119.072 67.2593ZM118.018 67.5695H116.331V68.1695H118.018V67.5695ZM116.513 67.802H118.018V67.202H116.513V67.802ZM118.018 67.802C118.357 67.802 118.657 67.7578 118.899 67.6502L118.655 67.1019C118.52 67.1622 118.313 67.202 118.018 67.202V67.802ZM118.898 67.6507C119.157 67.537 119.35 67.3464 119.464 67.0883L118.916 66.8447C118.863 66.9646 118.78 67.047 118.657 67.1013L118.898 67.6507ZM119.465 67.0871C119.572 66.843 119.616 66.5414 119.616 66.2H119.016C119.016 66.498 118.976 66.7073 118.916 66.8459L119.465 67.0871ZM119.616 66.2V65.0275H119.016V66.2H119.616ZM119.616 65.0275C119.616 64.6884 119.572 64.3885 119.464 64.1462L118.916 64.3898C118.976 64.5255 119.016 64.7319 119.016 65.0275H119.616ZM119.465 64.1474C119.351 63.8872 119.158 63.6945 118.898 63.5803L118.657 64.1297C118.779 64.1835 118.862 64.2661 118.916 64.3886L119.465 64.1474ZM118.902 63.5821C118.659 63.471 118.358 63.4255 118.018 63.4255V64.0255C118.313 64.0255 118.518 64.0663 118.653 64.1279L118.902 63.5821ZM118.018 63.4255H116.513V64.0255H118.018V63.4255ZM116.213 63.7255V67.502H116.813V63.7255H116.213ZM125.464 63.7255V63.4255H125.164V63.7255H125.464ZM125.464 65.402H125.164V65.702H125.464V65.402ZM125.464 65.7695V65.4695H125.164V65.7695H125.464ZM125.464 67.502H125.164V67.802H125.464V67.502ZM125.282 67.5695C125.266 67.5695 125.31 67.5658 125.355 67.611C125.4 67.6562 125.396 67.6996 125.396 67.684H124.796C124.796 67.7921 124.824 67.9282 124.931 68.0353C125.038 68.1423 125.174 68.1695 125.282 68.1695V67.5695ZM125.396 67.684V63.5435H124.796V67.684H125.396ZM125.396 63.5435C125.396 63.5279 125.4 63.5713 125.355 63.6165C125.31 63.6617 125.266 63.658 125.282 63.658V63.058C125.174 63.058 125.038 63.0852 124.931 63.1922C124.824 63.2993 124.796 63.4354 124.796 63.5435H125.396ZM125.282 63.658H127.903V63.058H125.282V63.658ZM127.903 63.658C127.919 63.658 127.875 63.6617 127.83 63.6165C127.785 63.5713 127.789 63.5279 127.789 63.5435H128.389C128.389 63.4354 128.362 63.2993 128.255 63.1922C128.148 63.0852 128.011 63.058 127.903 63.058V63.658ZM127.789 63.5435C127.789 63.5565 127.786 63.5114 127.832 63.4659C127.878 63.4214 127.92 63.4255 127.903 63.4255V64.0255C128.01 64.0255 128.145 63.9993 128.253 63.8941C128.361 63.7879 128.389 63.6519 128.389 63.5435H127.789ZM127.903 63.4255H125.464V64.0255H127.903V63.4255ZM125.164 63.7255V65.402H125.764V63.7255H125.164ZM125.464 65.702H127.077V65.102H125.464V65.702ZM127.077 65.702C127.094 65.702 127.052 65.7062 127.006 65.6616C126.96 65.6161 126.963 65.571 126.963 65.584H127.563C127.563 65.4756 127.535 65.3396 127.427 65.2334C127.319 65.1282 127.184 65.102 127.077 65.102V65.702ZM126.963 65.584C126.963 65.5996 126.959 65.5562 127.004 65.511C127.049 65.4658 127.093 65.4695 127.077 65.4695V66.0695C127.185 66.0695 127.322 66.0423 127.429 65.9353C127.536 65.8282 127.563 65.6921 127.563 65.584H126.963ZM127.077 65.4695H125.464V66.0695H127.077V65.4695ZM125.164 65.7695V67.502H125.764V65.7695H125.164ZM125.464 67.802H127.903V67.202H125.464V67.802ZM127.903 67.802C127.92 67.802 127.878 67.8062 127.832 67.7616C127.786 67.7161 127.789 67.671 127.789 67.684H128.389C128.389 67.5756 128.361 67.4396 128.253 67.3334C128.145 67.2282 128.01 67.202 127.903 67.202V67.802ZM127.789 67.684C127.789 67.6996 127.785 67.6562 127.83 67.611C127.875 67.5658 127.919 67.5695 127.903 67.5695V68.1695C128.011 68.1695 128.148 68.1423 128.255 68.0353C128.362 67.9282 128.389 67.7921 128.389 67.684H127.789ZM127.903 67.5695H125.282V68.1695H127.903V67.5695ZM133.595 63.4665L133.832 63.2821L133.824 63.2737L133.595 63.4665ZM136.559 67.2745V67.5745H137.173L136.796 67.0902L136.559 67.2745ZM136.475 67.2745H136.175V67.5745H136.475V67.2745ZM136.472 67.761L136.235 67.9455L136.238 67.9493L136.472 67.761ZM133.504 63.953V63.653H132.889L133.267 64.1374L133.504 63.953ZM133.588 63.953H133.888V63.653H133.588V63.953ZM133.406 67.5695C133.39 67.5695 133.433 67.5658 133.479 67.611C133.524 67.6562 133.52 67.6996 133.52 67.684H132.92C132.92 67.7921 132.947 67.9282 133.054 68.0353C133.161 68.1423 133.298 68.1695 133.406 68.1695V67.5695ZM133.52 67.684V63.5435H132.92V67.684H133.52ZM133.52 63.5435C133.52 63.5279 133.524 63.5713 133.479 63.6165C133.433 63.6617 133.39 63.658 133.406 63.658V63.058C133.298 63.058 133.161 63.0852 133.054 63.1922C132.947 63.2993 132.92 63.4354 132.92 63.5435H133.52ZM133.406 63.658C133.394 63.658 133.383 63.6563 133.373 63.6535C133.363 63.6508 133.356 63.6475 133.353 63.6453C133.346 63.6415 133.351 63.6425 133.365 63.6593L133.824 63.2737C133.733 63.1646 133.594 63.058 133.406 63.058V63.658ZM133.358 63.6508L136.322 67.4588L136.796 67.0902L133.831 63.2822L133.358 63.6508ZM136.559 66.9745H136.475V67.5745H136.559V66.9745ZM136.775 67.2745V63.5435H136.175V67.2745H136.775ZM136.775 63.5435C136.775 63.5279 136.779 63.5713 136.734 63.6165C136.688 63.6617 136.645 63.658 136.661 63.658V63.058C136.553 63.058 136.416 63.0852 136.309 63.1922C136.202 63.2993 136.175 63.4354 136.175 63.5435H136.775ZM136.661 63.658C136.674 63.658 136.629 63.6609 136.583 63.6145C136.538 63.5691 136.543 63.5265 136.543 63.5435H137.143C137.143 63.4369 137.116 63.3015 137.011 63.1943C136.905 63.086 136.769 63.058 136.661 63.058V63.658ZM136.543 63.5435V67.684H137.143V63.5435H136.543ZM136.543 67.684C136.543 67.701 136.538 67.6584 136.583 67.613C136.629 67.5666 136.674 67.5695 136.661 67.5695V68.1695C136.769 68.1695 136.905 68.1415 137.011 68.0332C137.116 67.926 137.143 67.7907 137.143 67.684H136.543ZM136.661 67.5695C136.671 67.5695 136.681 67.5709 136.691 67.5736C136.7 67.5762 136.707 67.5796 136.712 67.5822C136.72 67.587 136.717 67.5876 136.705 67.5727L136.238 67.9493C136.331 68.0644 136.472 68.1695 136.661 68.1695V67.5695ZM136.708 67.5766L133.74 63.7686L133.267 64.1374L136.235 67.9454L136.708 67.5766ZM133.504 64.253H133.588V63.653H133.504V64.253ZM133.288 63.953V67.684H133.888V63.953H133.288ZM133.288 67.684C133.288 67.701 133.283 67.6584 133.328 67.613C133.374 67.5666 133.419 67.5695 133.406 67.5695V68.1695C133.514 68.1695 133.65 68.1415 133.756 68.0332C133.861 67.926 133.888 67.7907 133.888 67.684H133.288ZM142.398 63.4035L142.61 63.6156V63.6156L142.398 63.4035ZM142.667 63.4035L142.455 63.6156V63.6156L142.667 63.4035ZM142.667 67.8205L142.879 68.0326L142.667 67.8205ZM142.534 67.5695C142.533 67.5695 142.542 67.5693 142.558 67.5749C142.575 67.581 142.594 67.592 142.61 67.6084L142.186 68.0326C142.288 68.1354 142.418 68.1695 142.534 68.1695V67.5695ZM142.61 67.6084C142.626 67.6248 142.637 67.6436 142.643 67.6605C142.649 67.6762 142.649 67.6856 142.649 67.684H142.049C142.049 67.7999 142.083 67.9299 142.186 68.0326L142.61 67.6084ZM142.649 67.684V63.54H142.049V67.684H142.649ZM142.649 63.54C142.649 63.5385 142.649 63.5478 142.643 63.5635C142.637 63.5804 142.626 63.5992 142.61 63.6156L142.186 63.1914C142.083 63.2942 142.049 63.4241 142.049 63.54H142.649ZM142.61 63.6156C142.594 63.6321 142.575 63.643 142.558 63.6491C142.542 63.6548 142.533 63.6545 142.534 63.6545V63.0545C142.418 63.0545 142.288 63.0886 142.186 63.1914L142.61 63.6156ZM142.534 63.6545C142.533 63.6545 142.522 63.6544 142.506 63.6483C142.488 63.6418 142.47 63.6307 142.455 63.6156L142.879 63.1914C142.779 63.0909 142.652 63.0545 142.534 63.0545V63.6545ZM142.455 63.6156C142.439 63.5992 142.428 63.5804 142.422 63.5635C142.416 63.5478 142.416 63.5385 142.416 63.54H143.016C143.016 63.4241 142.982 63.2942 142.879 63.1914L142.455 63.6156ZM142.416 63.54V67.684H143.016V63.54H142.416ZM142.416 67.684C142.416 67.6856 142.416 67.6762 142.422 67.6605C142.428 67.6436 142.439 67.6248 142.455 67.6084L142.879 68.0326C142.982 67.9299 143.016 67.7999 143.016 67.684H142.416ZM142.455 67.6084C142.47 67.5933 142.488 67.5822 142.506 67.5758C142.522 67.5697 142.533 67.5695 142.534 67.5695V68.1695C142.652 68.1695 142.779 68.1331 142.879 68.0326L142.455 67.6084ZM148.451 67.586L148.247 67.8057L148.249 67.8081L148.451 67.586ZM148.129 66.7075L148.429 66.697L148.429 66.695L148.129 66.7075ZM148.175 66.5745L148.387 66.7866L148.175 66.5745ZM148.444 66.571L148.232 66.7831L148.444 66.571ZM148.5 66.704L148.8 66.6945L148.8 66.6868L148.799 66.6791L148.5 66.704ZM148.71 67.32L148.51 67.5438L148.71 67.32ZM151.08 67.3025L150.868 67.0904L151.08 67.3025ZM151.08 65.927L150.866 66.1373L150.869 66.141L151.08 65.927ZM148.528 65.444L148.74 65.2319L148.528 65.444ZM148.525 63.645L148.312 63.4329L148.311 63.4342L148.525 63.645ZM151.276 63.6205L151.072 63.8406L151.073 63.8419L151.276 63.6205ZM151.584 64.4465L151.284 64.4577L151.285 64.4714L151.584 64.4465ZM151.538 64.583L151.75 64.7951V64.7951L151.538 64.583ZM151.272 64.583L151.484 64.3709V64.3709L151.272 64.583ZM151.216 64.45L150.916 64.4604L150.917 64.4677L150.917 64.4749L151.216 64.45ZM148.787 63.9075L148.999 64.1196L149.001 64.1176L148.787 63.9075ZM148.787 65.185L148.573 65.3951L148.577 65.3992L148.787 65.185ZM151.342 65.668L151.129 65.8789L151.13 65.8801L151.342 65.668ZM151.342 67.565L151.553 67.7784L151.554 67.7771L151.342 67.565ZM149.382 67.5625C149.001 67.5625 148.778 67.4775 148.653 67.3639L148.249 67.8081C148.53 68.0632 148.928 68.1625 149.382 68.1625V67.5625ZM148.655 67.3664C148.535 67.2545 148.441 67.0527 148.429 66.697L147.829 66.718C147.845 67.1603 147.966 67.5442 148.247 67.8057L148.655 67.3664ZM148.429 66.695C148.429 66.6971 148.429 66.7101 148.423 66.7294C148.416 66.7499 148.403 66.7701 148.387 66.7866L147.963 66.3624C147.858 66.4668 147.824 66.5995 147.829 66.72L148.429 66.695ZM148.387 66.7866C148.375 66.7984 148.36 66.8086 148.343 66.8151C148.326 66.8214 148.315 66.822 148.311 66.822V66.222C148.187 66.222 148.061 66.2635 147.963 66.3624L148.387 66.7866ZM148.311 66.822C148.31 66.822 148.299 66.8219 148.283 66.8158C148.265 66.8093 148.247 66.7982 148.232 66.7831L148.656 66.3589C148.556 66.2584 148.429 66.222 148.311 66.222V66.822ZM148.232 66.7831C148.22 66.7709 148.211 66.7573 148.206 66.7452C148.201 66.7338 148.201 66.7272 148.201 66.7289L148.799 66.6791C148.79 66.5683 148.749 66.452 148.656 66.3589L148.232 66.7831ZM148.2 66.7135C148.211 67.0367 148.288 67.345 148.51 67.5438L148.91 67.0962C148.871 67.0616 148.808 66.9593 148.8 66.6945L148.2 66.7135ZM148.51 67.5438C148.726 67.7363 149.045 67.795 149.382 67.795V67.195C149.085 67.195 148.956 67.1371 148.91 67.0962L148.51 67.5438ZM149.382 67.795H150.39V67.195H149.382V67.795ZM150.39 67.795C150.741 67.795 151.076 67.7307 151.292 67.5146L150.868 67.0904C150.827 67.131 150.701 67.195 150.39 67.195V67.795ZM151.292 67.5146C151.509 67.2976 151.576 66.9665 151.576 66.6165H150.976C150.976 66.9199 150.912 67.0461 150.868 67.0904L151.292 67.5146ZM151.576 66.6165C151.576 66.2642 151.51 65.9289 151.29 65.713L150.869 66.141C150.911 66.1817 150.976 66.3062 150.976 66.6165H151.576ZM151.294 65.7168C151.078 65.4969 150.742 65.431 150.39 65.431V66.031C150.7 66.031 150.825 66.0958 150.866 66.1372L151.294 65.7168ZM150.39 65.431H149.431V66.031H150.39V65.431ZM149.431 65.431C149.06 65.431 148.852 65.3436 148.74 65.2319L148.316 65.6561C148.587 65.927 148.981 66.031 149.431 66.031V65.431ZM148.74 65.2319C148.628 65.1198 148.541 64.9132 148.541 64.5445H147.941C147.941 64.9925 148.045 65.3855 148.316 65.6561L148.74 65.2319ZM148.541 64.5445C148.541 64.1749 148.628 63.9678 148.738 63.8558L148.311 63.4342C148.044 63.7049 147.941 64.0974 147.941 64.5445H148.541ZM148.737 63.8571C148.849 63.7451 149.055 63.658 149.424 63.658V63.058C148.976 63.058 148.583 63.1622 148.312 63.4329L148.737 63.8571ZM149.424 63.658H150.404V63.058H149.424V63.658ZM150.404 63.658C150.759 63.658 150.961 63.7381 151.072 63.8406L151.479 63.4004C151.212 63.1529 150.833 63.058 150.404 63.058V63.658ZM151.073 63.8419C151.183 63.9423 151.271 64.126 151.284 64.4577L151.883 64.4353C151.868 64.0156 151.751 63.6487 151.478 63.3991L151.073 63.8419ZM151.285 64.4714C151.284 64.4658 151.284 64.4496 151.291 64.4278C151.299 64.4049 151.312 64.3852 151.326 64.3709L151.75 64.7951C151.857 64.6889 151.893 64.5522 151.883 64.4216L151.285 64.4714ZM151.326 64.3709C151.342 64.3545 151.361 64.3435 151.378 64.3374C151.394 64.3318 151.403 64.332 151.402 64.332V64.932C151.518 64.932 151.647 64.8979 151.75 64.7951L151.326 64.3709ZM151.402 64.332C151.405 64.332 151.418 64.3326 151.435 64.3392C151.453 64.3461 151.471 64.3572 151.484 64.3709L151.06 64.7951C151.158 64.8932 151.282 64.932 151.402 64.932V64.332ZM151.484 64.3709C151.497 64.3831 151.505 64.3967 151.51 64.4088C151.515 64.4202 151.515 64.4268 151.515 64.4251L150.917 64.4749C150.926 64.5857 150.967 64.7021 151.06 64.7951L151.484 64.3709ZM151.516 64.4396C151.506 64.1407 151.432 63.8504 151.219 63.6618L150.821 64.1112C150.851 64.1373 150.908 64.2227 150.916 64.4604L151.516 64.4396ZM151.219 63.6618C151.013 63.4801 150.715 63.4255 150.404 63.4255V64.0255C150.672 64.0255 150.784 64.0783 150.821 64.1112L151.219 63.6618ZM150.404 63.4255H149.424V64.0255H150.404V63.4255ZM149.424 63.4255C149.097 63.4255 148.779 63.487 148.573 63.6974L149.001 64.1176C149.033 64.0854 149.14 64.0255 149.424 64.0255V63.4255ZM148.575 63.6954C148.369 63.9019 148.309 64.2183 148.309 64.5445H148.909C148.909 64.2593 148.968 64.1512 148.999 64.1196L148.575 63.6954ZM148.309 64.5445C148.309 64.8716 148.369 65.187 148.573 65.3951L149.001 64.9749C148.967 64.9403 148.909 64.8288 148.909 64.5445H148.309ZM148.577 65.3992C148.785 65.6035 149.103 65.6635 149.431 65.6635V65.0635C149.144 65.0635 149.031 65.0045 148.997 64.9708L148.577 65.3992ZM149.431 65.6635H150.39V65.0635H149.431V65.6635ZM150.39 65.6635C150.785 65.6635 151.008 65.7567 151.129 65.8789L151.555 65.4571C151.275 65.1733 150.863 65.0635 150.39 65.0635V65.6635ZM151.13 65.8801C151.251 66.0011 151.343 66.2237 151.343 66.6165H151.943C151.943 66.146 151.835 65.7362 151.554 65.4559L151.13 65.8801ZM151.343 66.6165C151.343 67.0094 151.251 67.2319 151.13 67.3529L151.554 67.7771C151.835 67.4968 151.943 67.087 151.943 66.6165H151.343ZM151.131 67.3516C151.011 67.4709 150.787 67.5625 150.39 67.5625V68.1625C150.862 68.1625 151.272 68.0558 151.553 67.7784L151.131 67.3516ZM150.39 67.5625H149.382V68.1625H150.39V67.5625Z" fill="white"/>
</svg>
