<svg width="60" height="60" viewBox="0 0 60 60" fill="none" xmlns="http://www.w3.org/2000/svg">
<g clip-path="url(#clip0_24_16)">
<path fill-rule="evenodd" clip-rule="evenodd" d="M43.5375 35.955C42.7925 35.5825 39.14 33.7875 38.46 33.5375C37.78 33.29 37.285 33.1675 36.7875 33.9125C36.2925 34.6525 34.87 36.3275 34.4375 36.8225C34.0025 37.32 33.57 37.38 32.8275 37.01C32.085 36.635 29.69 35.8525 26.8525 33.3225C24.645 31.3525 23.1525 28.92 22.72 28.175C22.2875 27.4325 22.6725 27.03 23.045 26.66C23.38 26.3275 23.7875 25.7925 24.16 25.36C24.5325 24.925 24.655 24.615 24.9025 24.1175C25.1525 23.6225 25.0275 23.19 24.84 22.8175C24.655 22.445 23.17 18.7875 22.55 17.3C21.9475 15.8525 21.335 16.05 20.88 16.025C20.445 16.005 19.95 16 19.455 16C18.96 16 18.155 16.185 17.475 16.93C16.7925 17.6725 14.875 19.47 14.875 23.1275C14.875 26.7825 17.535 30.315 17.9075 30.8125C18.28 31.3075 23.145 38.8125 30.5975 42.03C32.3725 42.795 33.755 43.2525 34.8325 43.5925C36.6125 44.16 38.2325 44.08 39.5125 43.8875C40.9375 43.675 43.9075 42.09 44.5275 40.355C45.145 38.62 45.145 37.1325 44.96 36.8225C44.775 36.5125 44.28 36.3275 43.535 35.955H43.5375ZM29.9825 54.4625H29.9725C25.5461 54.4633 21.2009 53.2734 17.3925 51.0175L16.4925 50.4825L7.1375 52.9375L9.635 43.8175L9.0475 42.8825C6.57284 38.9434 5.26324 34.3845 5.27 29.7325C5.275 16.1075 16.36 5.02254 29.9925 5.02254C36.5925 5.02254 42.7975 7.59754 47.4625 12.2675C49.7634 14.559 51.5872 17.284 52.8282 20.2848C54.0692 23.2856 54.7029 26.5027 54.6925 29.75C54.6875 43.375 43.6025 54.4625 29.9825 54.4625ZM51.0125 8.72004C48.258 5.94735 44.9806 3.74888 41.3702 2.25204C37.7599 0.755201 33.8883 -0.0102517 29.98 4.14087e-05C13.595 4.14087e-05 0.255 13.3375 0.25 29.73C0.2475 34.97 1.615 40.085 4.2175 44.5925L0 60L15.76 55.865C20.1197 58.2403 25.0052 59.4849 29.97 59.485H29.9825C46.3675 59.485 59.7075 46.1475 59.7125 29.7525C59.7246 25.8457 58.9619 21.9753 57.4686 18.3651C55.9752 14.755 53.7809 11.4767 51.0125 8.72004Z" fill="white"/>
</g>
<defs>
<clipPath id="clip0_24_16">
<rect width="60" height="60" fill="white"/>
</clipPath>
</defs>
</svg>
